<svg width="38" height="24" viewBox="0 0 64 48" fill="none" xmlns="http://www.w3.org/2000/svg">
<path d="M13.9291 22.6784H14.257C14.4583 22.6784 14.5882 22.5582 14.5882 22.3518C14.5882 22.1514 14.4827 22.0197 14.257 22.0197H13.9291M13.9291 21.5645H14.23C14.4286 21.5645 14.5544 21.4762 14.5544 21.2874C14.5544 21.1021 14.4188 21.001 14.23 21.001H13.9291V21.5645ZM12.9172 23.2578V22.9406C13.0308 22.8967 13.0965 22.8099 13.1007 22.714V20.9489C13.0965 20.8525 13.0308 20.7659 12.9172 20.7226V20.4054H14.3396C14.5946 20.4054 14.8799 20.4019 15.1005 20.5221C15.3441 20.652 15.4245 20.8914 15.4245 21.128C15.4245 21.4536 15.2755 21.6773 14.9104 21.7665V21.7733C15.3291 21.82 15.4735 22.1131 15.4735 22.4461C15.4735 22.6789 15.4124 22.9382 15.1997 23.0883C14.9676 23.2543 14.6704 23.2582 14.3854 23.2582H12.9172V23.2578Z" fill="#1F4396"/>
<path d="M16.8453 22.3066C16.6855 22.3634 16.3525 22.4332 16.3525 22.6194C16.3525 22.7231 16.4028 22.8421 16.565 22.8421C16.7094 22.8421 16.7431 22.8247 16.8452 22.7623M16.8976 23.0979C16.7074 23.2376 16.4672 23.3009 16.2199 23.3009C15.801 23.3009 15.5925 23.0425 15.5925 22.7023C15.5925 22.2825 15.8278 22.1592 16.2312 22.0429L16.8332 21.8798V21.6886C16.8332 21.5853 16.738 21.5005 16.6125 21.5005C16.4681 21.5005 16.3681 21.5855 16.3681 21.6886V21.893H15.6914V21.4361C16 21.2435 16.334 21.1178 16.7068 21.1178C16.9466 21.1178 17.147 21.1508 17.3488 21.2842C17.6 21.4572 17.6037 21.6772 17.6 21.9202V22.6944C17.6 22.8044 17.5884 22.9007 17.7101 22.9772L17.7642 23.2581H16.9519" fill="#1F4396"/>
<path d="M31.5531 22.6784H31.881C32.0826 22.6784 32.2122 22.5582 32.2122 22.3518C32.2122 22.1514 32.1063 22.0197 31.881 22.0197H31.5531M31.5531 21.5645H31.8542C32.0529 21.5645 32.1784 21.4762 32.1784 21.2874C32.1784 21.1021 32.043 21.001 31.8542 21.001H31.5531V21.5645ZM30.541 23.2578V22.9406C30.6553 22.8967 30.7208 22.8099 30.7245 22.714V20.9489C30.7206 20.8525 30.6551 20.7659 30.541 20.7226V20.4054H31.9639C32.2189 20.4054 32.5044 20.4019 32.725 20.5221C32.9685 20.652 33.0488 20.8914 33.0488 21.128C33.0488 21.4536 32.9002 21.6773 32.5347 21.7665V21.7733C32.9532 21.82 33.0978 22.1131 33.0978 22.4461C33.0978 22.6789 33.0367 22.9382 32.8242 23.0883C32.5918 23.2543 32.2945 23.2582 32.0096 23.2582H30.541V23.2578Z" fill="#1F4396"/>
<path d="M34.4573 22.3066C34.298 22.3634 33.9652 22.4332 33.9652 22.6194C33.9652 22.7231 34.0149 22.8421 34.1769 22.8421C34.3215 22.8421 34.3554 22.8247 34.4571 22.7623M34.5097 23.0979C34.3195 23.2376 34.0791 23.3009 33.8314 23.3009C33.4131 23.3009 33.2045 23.0425 33.2045 22.7023C33.2045 22.2825 33.4395 22.1592 33.8432 22.0429L34.445 21.8798V21.6886C34.445 21.5853 34.3499 21.5005 34.2246 21.5005C34.0799 21.5005 33.9797 21.5855 33.9797 21.6886V21.893H33.3035V21.4361C33.6114 21.2435 33.9454 21.1178 34.3187 21.1178C34.5582 21.1178 34.7587 21.1508 34.9606 21.2842C35.2116 21.4572 35.2154 21.6772 35.2116 21.9202V22.6944C35.2116 22.8044 35.2 22.9007 35.3218 22.9772L35.3761 23.2581H34.5633L34.5097 23.0979Z" fill="#1F4396"/>
<path d="M18.7887 21.2907C19.0363 21.1454 19.286 21.1131 19.4082 21.1177C19.5953 21.1241 19.7315 21.1779 19.823 21.2573C19.9863 21.394 20.0054 21.5467 20.0054 21.7267V22.6773C20.0054 22.7802 20.0478 22.8966 20.1658 22.9533V23.2578H19.2649C19.2115 23.0446 19.2153 22.8217 19.2153 22.6056V21.8748C19.2153 21.8617 19.2263 21.7654 19.1885 21.6885C19.1274 21.6087 18.9742 21.5491 18.826 21.6087V22.701C18.826 22.8039 18.8144 22.9206 18.9364 22.9769V23.2578H17.8717V22.9769C17.9899 22.9173 18.0359 22.8204 18.0359 22.714V21.7715C18.0359 21.6586 17.9862 21.5849 17.8717 21.5118V21.1608H18.7884" fill="#1F4396"/>
<path d="M36.4342 21.2907C36.6816 21.1454 36.9318 21.1131 37.0546 21.1177C37.241 21.1241 37.3775 21.1779 37.4693 21.2573C37.6327 21.394 37.6516 21.5467 37.6516 21.7267V22.6773C37.6516 22.7802 37.694 22.8966 37.8118 22.9533V23.2578H36.9106C36.8575 23.0446 36.8614 22.8217 36.8614 22.6056V21.8748C36.8614 21.8617 36.8728 21.7654 36.8348 21.6885C36.7737 21.6087 36.6205 21.5491 36.472 21.6087V22.701C36.472 22.8039 36.4609 22.9206 36.5829 22.9769V23.2578H35.5179V22.9769C35.6357 22.9173 35.682 22.8204 35.682 22.714V21.7715C35.682 21.6586 35.6319 21.5849 35.5179 21.5118V21.1608H36.4341" fill="#1F4396"/>
<path d="M21.5885 21.6417C21.5474 21.6169 21.4076 21.6008 21.3557 21.6008C21.0957 21.6008 21.0606 21.8233 21.0606 21.9371V22.4215C21.0606 22.5292 21.1102 22.7927 21.3594 22.7927C21.4041 22.7927 21.5474 22.7798 21.5887 22.7578M22.5435 21.4408C22.4256 21.5045 22.3793 21.5947 22.3793 21.7008V23.1609C22.3793 23.3974 22.3909 23.7167 22.1815 23.8932C21.9759 24.0701 21.7107 24.0996 21.4368 24.0996C21.0372 24.0996 20.763 23.9636 20.413 23.7941V23.3974H21.1388C21.1388 23.4211 21.1427 23.5512 21.1656 23.5985C21.1918 23.6448 21.2878 23.6774 21.3603 23.6774C21.5579 23.6774 21.5893 23.4007 21.5893 23.2807V23.1477C21.4293 23.2541 21.2043 23.3009 21.0335 23.3009C20.4407 23.3009 20.2944 22.9189 20.2944 22.4595V22.0485C20.2944 21.5927 20.3454 21.1173 20.9911 21.1173C21.2045 21.1173 21.4406 21.1678 21.6122 21.2806V21.161H22.5437L22.5435 21.4408Z" fill="#1F4396"/>
<path d="M23.5176 21.8575L23.8062 21.6433C23.908 21.5455 23.9321 21.4272 23.9321 21.2443V21.161H24.7871V21.4413C24.757 21.4553 24.6731 21.485 24.6084 21.5547L24.1187 21.9859L24.6084 22.6912C24.6695 22.8004 24.7152 22.9174 24.8599 22.9774V23.2582H24.0967L23.5255 22.3455H23.5178V22.7011C23.5178 22.8139 23.5605 22.9005 23.6822 22.9774V23.2582H22.6171V22.9774C22.7314 22.9005 22.7815 22.8272 22.7815 22.7143V20.9624C22.7815 20.8491 22.7387 20.7628 22.6171 20.6861V20.4054H23.5178" fill="#1F4396"/>
<path d="M38.83 21.8575L39.1184 21.6433C39.2206 21.5455 39.2443 21.4272 39.2443 21.2443V21.161H40.0993V21.4413C40.069 21.4553 39.9853 21.485 39.9204 21.5547L39.4303 21.9859L39.9204 22.6912C39.9817 22.8004 40.0275 22.9174 40.1723 22.9774V23.2582H39.4088L38.8379 22.3455H38.83V22.7011C38.83 22.8139 38.8725 22.9005 38.9942 22.9774V23.2582H37.9294V22.9774C38.0434 22.9005 38.0937 22.8272 38.0937 22.7143V20.9624C38.0937 20.8491 38.0513 20.7628 37.9294 20.6861V20.4054H38.83" fill="#1F4396"/>
<path d="M27.9703 21.8575L28.2588 21.6433C28.361 21.5455 28.3848 21.4272 28.3848 21.2443V21.161H29.24V21.4413C29.2099 21.4553 29.1255 21.485 29.0613 21.5547L28.5709 21.9859L29.0613 22.6912C29.1226 22.8004 29.1683 22.9174 29.3123 22.9774V23.2582H28.5496L27.9784 22.3455H27.9703V22.7011C27.9703 22.8139 28.0131 22.9005 28.1347 22.9774V23.2582H27.0698V22.9774C27.1838 22.9005 27.234 22.8272 27.234 22.7143V20.9624C27.234 20.8491 27.1913 20.7628 27.0698 20.6861V20.4054H27.9702" fill="#1F4396"/>
<path d="M25.6744 22.6316C25.6744 22.7448 25.761 22.9178 25.93 22.9178C26.1184 22.9178 26.1894 22.7448 26.1894 22.6316V21.8136C26.1894 21.7004 26.1259 21.5004 25.9333 21.5004C25.7403 21.5004 25.6744 21.6971 25.6744 21.8136M27.0008 22.4587C27.0008 22.6921 26.9932 22.9547 26.776 23.118C26.5591 23.2807 26.2399 23.3009 25.9659 23.3009C25.7179 23.3009 25.368 23.2838 25.1588 23.1609C24.8656 22.9916 24.8656 22.7351 24.8656 22.4587V21.9131C24.8656 21.6863 24.8696 21.4404 25.0944 21.2874C25.3111 21.1375 25.6043 21.1177 25.8744 21.1177C26.1179 21.1177 26.4832 21.1338 26.6925 21.2408C26.9817 21.3938 27.0008 21.6468 27.0008 21.9132V22.4587Z" fill="#1F4396"/>
<path d="M59.9945 28.1592C59.9989 28.4806 59.95 28.4872 59.7914 28.5215H57.8585C57.7164 28.5296 57.5854 28.443 57.5774 28.2852L57.5812 25.7282C57.5493 25.6723 57.5209 25.6124 57.453 25.5989C57.3928 25.5946 57.3311 25.6082 57.2994 25.6497L57.2537 25.7515L57.2508 28.2335C57.2508 28.3911 57.1845 28.5388 56.9319 28.5213H55.1468C55.0396 28.5294 54.7765 28.5246 54.7686 28.2773L54.7852 25.7513C54.7664 25.6633 54.7908 25.5765 54.6193 25.5765L54.3839 25.5649C54.2595 25.5765 54.2494 25.4976 54.2494 25.4299V24.8983C54.2707 24.7972 54.3052 24.7782 54.5657 24.7782H55.6954C55.8759 24.7782 55.8523 24.9778 55.8523 24.9778L55.8585 27.5333C55.8726 27.5878 55.8813 27.666 55.9453 27.6893C56.0156 27.7305 56.0781 27.7193 56.1567 27.7014C56.1567 27.7014 56.2521 27.6669 56.2521 27.519L56.246 25.2578C56.2497 25.093 56.2556 24.8321 56.6091 24.7813C56.9018 24.7813 57.8429 24.7774 58.1992 24.7813C58.3825 24.7813 58.5594 24.8183 58.6017 25.0081L58.6028 27.6113C58.6175 27.657 58.6537 27.708 58.7054 27.7302C58.7971 27.7526 58.861 27.7399 58.9034 27.6801L58.9359 27.6238L58.9582 26.841L58.9548 24.9732C58.9548 24.838 58.9441 24.7703 59.125 24.7703H59.8364C59.954 24.778 59.9945 24.8271 60 24.9396L59.9945 28.1592Z" fill="#1F4396"/>
<path d="M53.936 28.356C53.9441 28.5129 53.8489 28.5215 53.7876 28.5129H53.0028C53.0028 28.5129 52.8548 28.5296 52.8548 28.3379L52.8465 25.7317C52.8326 25.6491 52.8023 25.6392 52.7326 25.5842C52.6276 25.5469 52.5753 25.5618 52.4594 25.5706C52.2617 25.6345 52.3496 25.8834 52.3265 26.0543L52.3232 28.1731C52.3232 28.4254 52.3496 28.5131 52.1315 28.5131H50.0919C49.9398 28.5155 49.7767 28.5045 49.7778 28.1553L49.7706 25.722C49.7506 25.6345 49.7349 25.5493 49.6138 25.5479C49.6138 25.5479 49.4024 25.5567 49.3066 25.5482C49.2031 25.5405 49.2031 25.4185 49.2031 25.4185L49.205 24.8838C49.205 24.7706 49.375 24.7706 49.375 24.7706L50.6152 24.7736C50.6152 24.7736 50.7899 24.7915 50.8069 24.9827L50.8115 27.5896C50.8069 27.6542 50.8656 27.71 50.9124 27.7423C50.9954 27.7788 51.1201 27.7693 51.1985 27.7333C51.2587 27.6962 51.2864 27.6592 51.2776 27.5713L51.2818 25.0868C51.3007 24.9721 51.322 24.7818 51.5581 24.7818H53.4228C53.8248 24.7706 53.9384 24.8499 53.9384 25.1552L53.936 28.356Z" fill="#1F4396"/>
<path d="M49.273 28.4514C49.273 28.5296 49.2128 28.5215 49.1497 28.5241L47.8094 28.5213C47.6686 28.5294 47.6363 28.4804 47.5918 28.3901L47.5868 24.8655C47.5868 24.8655 47.5775 24.778 47.6707 24.778H48.5739L48.6745 24.8471L48.6644 27.5313C48.6739 27.6364 48.6644 27.7316 48.7666 27.7681C48.7666 27.7681 49.1091 27.7711 49.1948 27.7711C49.2829 27.7711 49.2787 27.874 49.2787 27.874L49.273 28.4514Z" fill="#1F4396"/>
<path d="M47.139 28.1716C47.107 28.3237 47.0296 28.4807 46.8735 28.5215C46.8735 28.5215 44.264 28.516 44.269 28.5152C44.06 28.516 44.037 28.4328 43.9851 28.2995C43.9851 28.2995 43.9877 27.4061 43.9934 26.9742C43.9934 26.9228 44.0589 26.8408 44.099 26.8312C44.2099 26.8212 44.9069 26.8272 44.9069 26.8272C45.0434 26.8272 45.035 26.9059 45.0541 27.0078V27.6171C45.0853 27.6411 45.0994 27.7419 45.2574 27.7419L45.8817 27.7437C46.0036 27.753 46.034 27.6648 46.0528 27.5775L46.0573 25.7447C46.0709 25.6381 46.0047 25.5318 45.8227 25.5394L45.3669 25.5463C45.281 25.5394 45.1687 25.5729 45.1564 25.4151C45.1564 25.4151 45.1564 25.0643 45.1544 24.8102L45.2091 24.7775L46.8524 24.7697C46.9958 24.8027 47.1215 24.8383 47.1336 25.0528L47.139 28.1716Z" fill="#1F4396"/>
<path d="M43.5373 28.2611C43.5509 28.4569 43.3821 28.4879 43.2621 28.5198L41.6552 28.5145C41.5807 28.5242 41.5246 28.5227 41.5159 28.4303C41.5108 28.3242 41.5159 28.0798 41.5159 27.8433C41.5159 27.8433 41.4936 27.7305 41.6398 27.7305L42.3102 27.7233C42.4346 27.7233 42.4919 27.6556 42.4801 27.5314C42.4801 27.5314 42.473 27.033 42.4801 26.8758C42.461 26.7883 42.4031 26.7274 42.3102 26.6949L40.7536 26.6912C40.5433 26.6912 40.4528 26.6004 40.4387 26.4044L40.4439 25.1656C40.4257 24.8803 40.5701 24.7821 40.8183 24.7821H43.4071C43.448 24.7918 43.5643 24.7764 43.5643 24.9856V25.4368C43.5643 25.6067 43.4071 25.5801 43.3082 25.5869L41.6178 25.5958C41.5343 25.6237 41.5027 25.6874 41.4934 25.77C41.4802 25.8538 41.5302 25.8997 41.5857 25.9509C41.6912 25.9953 41.8341 25.9595 41.9501 25.9824L43.3289 25.972C43.5241 25.985 43.5372 26.1024 43.5372 26.3386L43.5373 28.2611Z" fill="#1F4396"/>
<path d="M43.5248 30.4353C43.4456 30.5051 43.3371 30.4775 43.2439 30.4963L42.586 30.4858C42.5535 30.4636 42.4935 30.4775 42.4935 30.4216C42.4245 30.1825 42.6127 29.7866 42.3309 29.6614C42.0874 29.6069 41.8018 29.6614 41.5634 29.6113C41.5352 29.3902 41.5447 29.1455 41.5544 28.9207L41.5944 28.8825C42.1436 28.8699 42.6918 28.8699 43.2393 28.8825C43.341 28.9297 43.4512 28.9708 43.4982 29.0814C43.5248 29.1455 43.5437 29.22 43.5479 29.2932L43.5248 30.4353Z" fill="#1F4396"/>
<path d="M40.0692 28.3923C40.0692 28.3923 40.0753 28.5215 39.9637 28.5215H39.1369C39.0004 28.5215 39.0338 28.407 39.0241 28.3514L39.0246 25.8744C39.0146 25.7543 38.9113 25.6251 38.7909 25.5884H38.0685C37.9104 25.5884 37.905 25.6713 37.8918 25.7207L37.8876 28.4461C37.8876 28.4461 37.9159 28.5215 37.77 28.5215C37.77 28.5215 36.959 28.541 36.8741 28.5314C36.786 28.5215 36.8016 28.4006 36.8016 28.4006V24.9211C36.7904 24.8198 36.8592 24.7783 36.9944 24.7783H39.5481C39.9316 24.7783 40.0692 24.8662 40.0692 25.3414V28.3923Z" fill="#1F4396"/>
<path d="M36.2561 28.3067C36.2561 28.4538 36.2222 28.5215 36.0414 28.5215C36.0414 28.5215 34.3585 28.5224 34.3473 28.5215C34.1207 28.5215 34.1474 28.4602 34.1474 28.4237C34.1474 28.4237 34.1367 28.0505 34.1367 27.8922C34.1367 27.7353 34.2483 27.7125 34.2483 27.7125L34.9266 27.7118C34.9978 27.7144 35.1637 27.7571 35.1637 27.5645V27.0335C35.1637 26.808 35.1299 26.7856 34.9615 26.7744L33.4254 26.7772C33.3925 26.7403 33.3327 26.768 33.2962 26.7449C33.1848 26.6986 33.13 26.597 33.1074 26.4873V25.1739C33.0971 24.9888 33.1533 24.7783 33.6501 24.7783L35.8845 24.7814C36.1389 24.7814 36.2491 24.7405 36.2491 24.9779V25.4985C36.2491 25.6559 36.1359 25.6447 35.9667 25.6333L34.4057 25.635C34.3422 25.6535 34.2727 25.6715 34.2358 25.7315C34.2132 25.8005 34.2029 25.9025 34.2404 25.9709L34.3272 26.0265L35.9781 26.0172C36.1807 26.0394 36.2618 26.321 36.2576 26.4548L36.2561 28.3067Z" fill="#1F4396"/>
<path d="M32.7308 28.3446C32.7308 28.3446 32.7597 28.5214 32.5792 28.5214H31.8108C31.6862 28.5214 31.653 28.3968 31.653 28.3968L31.6556 25.8514C31.6513 25.7736 31.6625 25.6356 31.5057 25.6166L30.7987 25.6107C30.5615 25.6221 30.6516 25.7457 30.629 25.825C30.629 25.825 30.6859 26.0171 30.482 25.9833H29.6688C29.6688 25.9833 29.5455 25.9945 29.5455 25.8705V24.9887C29.5562 24.7177 29.7365 24.7782 29.8721 24.7782L32.4287 24.7819C32.5618 24.8056 32.7007 24.9166 32.7339 25.0514L32.7308 28.3446Z" fill="#1F4396"/>
<path d="M24.7279 28.3446C24.7279 28.3446 24.7569 28.5214 24.5765 28.5214H23.8085C23.6839 28.5214 23.6499 28.3968 23.6499 28.3968L23.6527 25.8514C23.6479 25.7736 23.66 25.6356 23.5026 25.6166L22.796 25.6107C22.5588 25.6221 22.6491 25.7457 22.6265 25.825C22.6265 25.825 22.683 26.0171 22.4792 25.9833H21.6661C21.6661 25.9833 21.5417 25.9945 21.5417 25.8705V24.9887C21.5535 24.7177 21.7342 24.7782 21.8691 24.7782L24.4257 24.7819C24.5589 24.8056 24.6985 24.9166 24.731 25.0514L24.7279 28.3446Z" fill="#1F4396"/>
<path d="M29.1727 28.356C29.1727 28.356 29.1791 28.5215 29.0549 28.5215C28.8399 28.5215 28.2865 28.5248 28.2195 28.5215C28.1104 28.5153 28.0992 28.3676 28.0992 28.3676L28.1104 25.8563C28.0993 25.7827 28.0678 25.7005 27.9993 25.6632L27.8983 25.6309H26.2959C26.2119 25.6543 26.1567 25.7095 26.1289 25.7825L26.1335 27.5144C26.1422 27.5936 26.2071 27.6535 26.2772 27.6889C26.3781 27.6764 26.4702 27.7125 26.548 27.6579L26.6032 27.57L26.6126 26.3441C26.6176 26.2623 26.5744 26.0849 26.8231 26.0504H27.659C27.8505 26.0504 27.8505 26.1528 27.8505 26.1528C27.8599 26.3636 27.8505 26.7177 27.8505 26.7177C27.8621 26.8076 27.6928 26.8076 27.6124 26.8052C27.5531 26.8146 27.4895 26.8654 27.5006 27.0113V28.3215C27.4781 28.5151 27.2296 28.5162 27.1003 28.5213H25.5196C25.3903 28.4929 25.2185 28.5151 25.1846 28.2876L25.1895 24.991C25.2071 24.8301 25.3455 24.7812 25.4752 24.7812H28.8912C29.0054 24.8181 29.0586 24.8897 29.1182 25.0038C29.1468 25.0741 29.1558 25.1557 29.1742 25.2295L29.1727 28.356Z" fill="#1F4396"/>
<path d="M22.3417 28.5153L20.5486 28.5215C20.3449 28.5215 20.3067 28.3637 20.2655 28.2623C20.2511 27.9258 20.2655 27.5757 20.2234 27.2487C20.21 27.1891 20.1644 27.1564 20.1084 27.1425C20.0484 27.1383 20.0073 27.1702 19.9655 27.1933L19.9148 27.2959L19.9097 28.2309C19.9211 28.5155 19.7578 28.5155 19.6273 28.5155L17.8701 28.5162C17.7734 28.4925 17.6899 28.4423 17.64 28.3584C17.5477 28.0872 17.5888 27.7564 17.5754 27.4705C17.58 26.8889 17.5707 26.3133 17.5437 25.7475C17.4839 25.5816 17.1395 25.6137 17.1395 25.6137C17.0734 25.633 17.0057 25.599 17.0057 25.5093L17.0136 24.9664C17.0178 24.8688 17.0327 24.7939 17.0626 24.7706H18.3051C18.4655 24.7939 18.5703 24.9224 18.6165 25.0794C18.6246 25.2044 18.6389 25.5082 18.6389 25.5082C18.6481 25.9222 18.6853 27.5489 18.6853 27.5489C18.7031 27.5992 18.7448 27.6458 18.7912 27.6777C18.8596 27.6913 18.9426 27.6913 18.9938 27.6458L19.0444 27.5348C19.058 27.1845 18.9752 26.7884 19.0809 26.4614C19.2101 26.2816 19.4721 26.3133 19.6715 26.3095C19.8179 26.3095 20.0343 26.3275 20.1866 26.2632L20.2187 26.1752C20.2187 26.1752 20.2196 25.0086 20.2139 24.9213C20.2031 24.7404 20.2933 24.7787 20.2933 24.7787H21.1632C21.2764 24.7787 21.31 24.8086 21.2992 24.9213L21.3069 26.2275C21.3247 26.2541 21.3434 26.277 21.3757 26.2944L22.2533 26.3275C22.3992 26.3449 22.5003 26.39 22.5344 26.5372L22.5353 28.2586C22.5338 28.4342 22.4768 28.5153 22.3417 28.5153ZM21.6832 27.5669C21.6929 27.4379 21.7252 27.2713 21.6142 27.1841C21.5728 27.1524 21.5034 27.1524 21.4392 27.1524C21.3608 27.1562 21.3285 27.2306 21.3155 27.2957C21.3155 27.4377 21.2918 27.6172 21.4247 27.6773C21.4806 27.7093 21.5546 27.6808 21.6142 27.6678C21.6559 27.6485 21.6698 27.6126 21.6832 27.5669Z" fill="#1F4396"/>
<path d="M16.647 28.1125C16.6332 28.2376 16.5683 28.3659 16.4584 28.4306C16.3665 28.4862 16.2958 28.5163 16.1804 28.5215H13.5895C13.3642 28.4926 13.1313 28.4649 13.0249 28.2389C12.9934 27.8881 12.9653 27.5136 12.9934 27.1538L13.0932 27.1044C13.4066 27.0947 13.8091 27.0907 14.0607 27.1044C14.1709 27.2786 13.9959 27.6062 14.2583 27.6747C14.6131 27.7031 15.0137 27.6943 15.3817 27.6848C15.4381 27.6802 15.4847 27.6615 15.5342 27.6429C15.654 27.4859 15.5755 27.2378 15.5986 27.0494C15.6125 26.9565 15.5525 26.8734 15.488 26.8369C15.2214 26.7907 14.9175 26.814 14.6406 26.8184L13.3146 26.8369C13.1484 26.7907 13.0334 26.671 13.006 26.5002C12.9917 26.0454 12.9917 25.6248 13.006 25.1694C13.0286 24.9483 13.0838 24.8295 13.2779 24.7781H16.4857C16.5362 24.7917 16.6331 24.83 16.6215 24.9548V25.5428C16.6215 25.5428 16.6215 25.6445 16.4408 25.6445C16.2942 25.6445 14.2493 25.6536 14.2493 25.6536C14.1896 25.6575 14.1252 25.7131 14.1067 25.7725C14.1067 25.8421 14.0928 25.9155 14.1522 25.9617L14.2357 26.0076C14.9913 26.0391 15.6059 25.9846 16.3844 26.0263C16.5323 26.0628 16.6287 26.1876 16.6419 26.3356L16.647 28.1125Z" fill="#1F4396"/>
<path d="M12.2154 23.9321C12.113 23.545 11.9649 23.2584 11.726 22.8206C11.648 22.6964 11.5473 22.5577 11.4574 22.4105C10.4187 20.8704 8.36943 18.1826 8.18192 18.0099C8.18192 18.0099 8.16907 18 8.15861 18C8.14687 18 8.13384 18.0099 8.13384 18.0099C7.94743 18.1824 5.89758 20.8704 4.85853 22.4105C4.76881 22.5578 4.66808 22.6966 4.58936 22.8206C4.35084 23.2584 4.20332 23.545 4.10039 23.9321C3.97305 24.4912 3.96663 25.1864 4.08241 25.7579C4.18699 26.2596 4.66367 26.772 5.14311 27.1548L5.87685 27.7375C5.87685 27.7375 7.92761 29.2162 8.11806 29.3096C8.11806 29.3096 8.13696 29.322 8.15843 29.322C8.17935 29.322 8.19751 29.3096 8.19751 29.3096C8.3887 29.216 10.4382 27.7375 10.4382 27.7375L11.1719 27.1548C11.6519 26.772 12.128 26.2596 12.2324 25.7579C12.3484 25.1864 12.3431 24.4912 12.2154 23.9321ZM7.5157 27.7889C7.5012 27.8109 7.46799 27.8039 7.44414 27.8017C7.32433 27.7175 7.02727 27.5025 7.02727 27.5025C6.51664 27.1239 6.00161 26.7746 5.51209 26.3854C4.76092 25.5587 4.83706 24.7337 5.06733 23.9048C5.07559 23.8514 5.10036 23.7705 5.171 23.756C5.38273 24.0684 5.83189 24.7121 5.83189 24.7121C6.26895 25.3403 6.79976 25.9066 7.30157 26.4964C7.64615 26.8129 7.50689 27.3445 7.5157 27.7889ZM8.15916 26.1497C8.14889 26.1493 8.13238 26.1423 8.11678 26.1262C7.46671 25.3563 6.7293 24.4859 6.08235 23.7129C5.96528 23.5169 5.84602 23.3286 5.83263 23.0762C5.82492 22.8791 5.81263 22.6977 5.97574 22.4507C5.97574 22.4507 6.08345 22.2942 6.11427 22.2481C6.11427 22.2481 7.43974 20.3841 8.1377 19.5009C8.1377 19.5009 8.14687 19.4888 8.15861 19.4888C8.16852 19.4888 8.17733 19.5009 8.17733 19.5009C8.87529 20.384 10.2004 22.2481 10.2004 22.2481C10.2318 22.2942 10.3396 22.4507 10.3396 22.4507C10.5022 22.6978 10.4899 22.8791 10.4813 23.0762C10.4685 23.3286 10.3486 23.5167 10.2323 23.7129C9.58499 24.4859 8.84795 25.3563 8.19843 26.1262C8.18283 26.1423 8.16724 26.1493 8.15916 26.1497ZM10.7996 26.3854C10.3101 26.7746 9.79434 27.1238 9.28353 27.5025C9.28353 27.5025 8.98703 27.7175 8.86685 27.8017C8.843 27.8039 8.80979 27.8109 8.79584 27.7889C8.80483 27.3445 8.6652 26.8131 9.01015 26.4966C9.51197 25.9067 10.0424 25.3405 10.4793 24.7123C10.4793 24.7123 10.9284 24.0686 11.1404 23.7562C11.2099 23.7705 11.2352 23.8516 11.2437 23.905C11.475 24.7337 11.5504 25.5589 10.7996 26.3854Z" fill="#1F4396"/>
</svg>