<svg width="38" height="24" viewBox="0 0 831 290" fill="none" xmlns="http://www.w3.org/2000/svg">
<path d="M101.354 171.173C88.9522 158.235 79.8036 142.651 74.6328 125.655C74.6328 125.655 74.3451 124.831 73.934 124.831C73.5229 124.831 73.194 125.755 73.194 125.755C58.2714 173.122 22.1981 191.852 9.80375 195.972C9.58031 196.037 9.39143 196.185 9.27652 196.383C9.16161 196.582 9.12959 196.816 9.18713 197.037C15.4771 213.567 24.8434 228.816 36.8125 242.012C37.0043 242.146 37.2343 242.219 37.4702 242.219C37.7061 242.219 37.9361 242.146 38.1279 242.012C76.791 220.469 98.7639 178.387 101.703 172.519C101.819 172.32 101.867 172.091 101.841 171.864C101.815 171.636 101.717 171.423 101.559 171.253" fill="#FFC800"/>
<path d="M189.019 171.173C189.122 171.173 189.142 171.173 189.142 171.173C201.558 158.245 210.709 142.657 215.863 125.655C215.863 125.655 216.172 124.831 216.583 124.831C216.994 124.831 217.323 125.755 217.323 125.755C232.266 173.122 268.319 191.852 280.713 195.972C280.825 196.002 280.929 196.053 281.02 196.123C281.111 196.194 281.187 196.281 281.242 196.381C281.298 196.48 281.332 196.589 281.344 196.702C281.355 196.815 281.343 196.929 281.309 197.037C275.066 213.585 265.703 228.841 253.704 242.012C253.52 242.146 253.297 242.218 253.067 242.218C252.838 242.218 252.614 242.146 252.43 242.012C213.726 220.469 191.712 178.387 188.814 172.519C188.693 172.329 188.63 172.11 188.63 171.886C188.63 171.663 188.693 171.444 188.814 171.253" fill="#FFC800"/>
<path d="M215.207 271.292C160.49 219.243 146.143 126.378 146.143 126.378C146.143 126.378 145.917 124.771 145.218 124.771C144.519 124.771 144.273 126.378 144.273 126.378C144.273 126.378 129.885 219.243 75.2506 271.292C75.2506 271.292 74.6956 271.795 75.2506 272.136C96.3891 283.514 120.102 289.545 144.232 289.68H146.123C170.262 289.544 193.982 283.506 215.124 272.116C215.192 272.07 215.248 272.008 215.286 271.936C215.324 271.865 215.344 271.785 215.344 271.704C215.344 271.623 215.324 271.544 215.286 271.472C215.248 271.4 215.192 271.338 215.124 271.292" fill="#FFC800"/>
<path d="M220.981 26.4798C220.159 26.0578 220.139 27.1429 220.139 27.1429C220.139 43.9032 222.502 136.346 288.606 164.541C289.223 164.822 289.408 164.34 289.428 164.219C290.097 158.723 290.447 153.195 290.476 147.66C290.497 123.329 284.118 99.4015 271.951 78.1765C259.785 56.9515 242.24 39.1421 221.002 26.4597" fill="#FFC800"/>
<path d="M69.4744 26.4798C70.2966 26.0578 70.2966 27.1429 70.2966 27.1429C70.2966 43.9032 67.9328 136.346 1.82936 164.541C1.75877 164.59 1.67681 164.62 1.591 164.629C1.50519 164.639 1.41829 164.627 1.3384 164.595C1.2585 164.563 1.1882 164.512 1.1339 164.446C1.07961 164.38 1.0431 164.302 1.02777 164.219C0.360429 158.723 0.0172858 153.195 4.15271e-05 147.66C-0.0187844 123.327 6.3636 99.3983 18.5339 78.1731C30.7042 56.9479 48.2533 39.1397 69.495 26.4597" fill="#FFC800"/>
<path d="M212.266 21.6366C192.842 11.7508 171.381 6.29552 149.492 5.68018C148.876 5.68018 148.958 6.42373 148.958 6.42373C148.958 34.5585 153.603 100.575 176.11 145.088C176.295 145.59 176.686 145.389 176.891 145.309L176.994 145.208C179.214 142.877 214.157 105.378 212.78 22.6213C212.771 22.4336 212.721 22.2499 212.632 22.0832C212.543 21.9166 212.418 21.771 212.266 21.6567" fill="#FFC800"/>
<path d="M78.1482 21.6366C97.5716 11.7508 119.033 6.29552 140.922 5.68018C141.518 5.68018 141.477 6.42373 141.477 6.42373C141.477 34.5585 136.831 100.575 114.283 145.088C114.268 145.161 114.232 145.23 114.181 145.285C114.129 145.341 114.063 145.382 113.99 145.405C113.916 145.427 113.838 145.43 113.763 145.414C113.688 145.397 113.62 145.36 113.564 145.309C113.564 145.309 113.564 145.309 113.42 145.208C111.179 142.877 76.2778 105.378 77.6549 22.6213C77.6549 22.4341 77.6995 22.2495 77.7851 22.0821C77.8708 21.9147 77.995 21.769 78.1482 21.6567" fill="#FFC800"/>
<path d="M397.299 62.0091H412.659C412.659 62.0091 415.234 62.6295 415.234 64.6039V71.7399H415.589C419.822 63.645 428.049 60.2886 438.408 60.2886V77.5784C437.231 77.5944 436.055 77.6696 434.886 77.8039C424.143 78.8193 415.264 84.5732 415.264 98.422V127.332C415.264 127.332 415.619 132.635 410.44 132.635H397.358L397.299 62.0091Z" fill="#66595A"/>
<path d="M763.198 62.0117H777.663C777.663 62.0117 780.145 62.6332 780.145 64.6106V71.7578H780.483C784.515 63.6502 792.439 60.2886 802.224 60.2886V77.6054C801.111 77.6233 800.001 77.6986 798.896 77.8313C788.689 78.8483 780.229 84.6111 780.229 98.4815V127.437C780.229 127.437 780.483 132.635 775.577 132.635H763.17L763.198 62.0117Z" fill="#66595A"/>
<path d="M512.404 65.6028V130.084C512.404 130.084 512.404 132.909 509.825 132.909H495.256V125.904H494.944C492.467 128.827 489.341 131.135 485.813 132.645C482.286 134.155 478.454 134.826 474.621 134.603C462.546 134.603 448.686 129.632 448.686 109.183V62.2983H463.283C464.033 62.4599 464.698 62.8864 465.157 63.499C465.615 64.1117 465.836 64.8691 465.777 65.6311V104.241C465.777 113.985 469.689 118.363 478.419 118.363C491.344 118.363 495.256 108.958 495.256 100.428V62.2983H509.57C510.368 62.415 511.097 62.8179 511.618 63.4314C512.14 64.045 512.419 64.827 512.404 65.6311" fill="#66595A"/>
<path d="M530.903 62.06H545.176C545.176 62.06 548.174 62.4652 548.174 65.2724V69.2084H548.488C550.876 66.3422 553.866 64.0543 557.24 62.5119C560.613 60.9695 564.285 60.2119 567.985 60.2947C584.912 60.2947 592.534 68.9768 592.534 84.9522V131.75C592.593 132.111 592.573 132.482 592.474 132.834C592.375 133.187 592.201 133.513 591.964 133.789C591.727 134.066 591.432 134.286 591.102 134.433C590.771 134.581 590.412 134.653 590.051 134.644H575.321V90.2195C575.321 83.592 572.466 77.1383 563.417 77.1383C555.082 77.1383 548.145 82.9264 548.145 96.2392V131.518C548.145 131.518 548.145 134.412 545.547 134.412H530.903V62.06Z" fill="#66595A"/>
<path d="M674.786 65.1782V131.288C674.786 149.659 659.246 158.76 639.756 158.76C616.722 158.76 607.34 143.13 607.34 134.284H625.785C627.063 139.202 631.943 143.13 640.685 143.13C652.043 143.13 657.271 137.477 657.271 128.829V121.226C654.516 123.811 651.263 125.842 647.699 127.2C644.134 128.558 640.33 129.217 636.503 129.14C618.378 129.14 604.9 116.025 604.9 94.7141C604.9 73.403 618.378 60.2886 636.503 60.2886C647.018 60.2886 652.653 63.765 656.835 68.7678H657.155V62.0409H671.678C672.093 62.0375 672.505 62.1208 672.884 62.2852C673.264 62.4496 673.603 62.6913 673.878 62.994C674.153 63.2968 674.358 63.6534 674.48 64.04C674.602 64.4265 674.637 64.834 674.583 65.2348M640.308 76.0599C627.121 76.0599 623.229 87.3655 623.083 94.7706C622.938 102.176 627.121 113.481 640.308 113.481C653.495 113.481 657.445 102.317 657.561 94.7706C657.678 87.2242 653.582 76.0599 640.308 76.0599Z" fill="#66595A"/>
<path d="M748.765 76.7194L740.595 84.1536L738.904 85.6735C738.533 84.988 738.121 84.3235 737.671 83.6836C735.783 81.0989 733.24 79.0231 730.284 77.6541C727.329 76.285 724.059 75.6684 720.786 75.8627C712.702 75.6693 707.657 78.4052 707.657 82.4953C707.657 94.6 752.893 84.3193 752.893 110.463C752.893 127.045 737.413 134.645 720.958 134.645C705.335 134.645 694.212 129.974 687.676 123.59C686.271 122.153 687.963 120.827 687.963 120.827L699.229 112.536C703.185 118.063 710.695 121.158 719.926 121.158C728.182 121.158 733.887 116.819 733.887 113.089C733.887 101.288 689.425 111.043 689.425 84.7338C689.425 69.147 703.5 62.3209 721.245 62.3209C726.324 62.148 731.386 62.9699 736.126 64.7369C740.866 66.504 745.185 69.1794 748.822 72.6015C749.147 72.8608 749.408 73.186 749.587 73.5539C749.767 73.9217 749.86 74.3231 749.86 74.7295C749.86 75.136 749.767 75.5374 749.587 75.9052C749.408 76.2731 749.147 76.5983 748.822 76.8576" fill="#66595A"/>
<path d="M830.819 36.539C830.819 34.3871 827.796 34.1636 827.796 34.1636H812.682V48.7799C812.682 48.7799 812.32 51.1833 815.373 51.1833H831L830.819 36.539ZM812.501 62.7534H828.008C828.761 62.8164 829.462 63.1383 829.971 63.6558C830.48 64.1732 830.761 64.8485 830.758 65.5481V129.827C830.826 130.193 830.801 130.569 830.685 130.925C830.569 131.281 830.365 131.607 830.09 131.878C829.815 132.149 829.475 132.357 829.098 132.486C828.721 132.615 828.317 132.661 827.917 132.621H812.501V62.7534Z" fill="#66595A"/>
<path d="M389.048 62.7575H370.256C367.866 62.8771 365.584 63.7513 363.76 65.2451L338.792 89.0315V51.1019C338.731 50.1114 338.463 49.1429 338.004 48.2544C337.546 47.3659 336.906 46.5756 336.124 45.9309L321.247 34.1636V132.635H335.747C339.053 132.635 338.647 128.946 338.647 128.946V110.274C338.654 109.876 338.822 109.496 339.114 109.215C339.406 108.933 339.8 108.772 340.213 108.765C341.431 108.765 343.113 110.386 343.113 110.386L363.412 129.756C365.625 131.429 368.318 132.405 371.126 132.551H389.077L352.422 97.6403L389.048 62.7575Z" fill="#66595A"/>
<path d="M389.51 186.918C387.294 187.41 385.167 188.222 383.201 189.327C381.374 190.38 379.802 191.799 378.589 193.489C377.32 195.395 376.679 197.629 376.75 199.895C376.762 202.125 377.263 204.328 378.222 206.356C379.41 208.275 380.977 209.95 382.833 211.284C384.587 212.595 386.485 213.715 388.492 214.624C390.501 215.555 392.396 216.458 394.15 217.362C395.719 218.302 397.172 219.413 398.479 220.674C399.677 221.973 400.306 223.671 400.233 225.411C400.187 226.153 399.96 226.875 399.572 227.517C399.184 228.159 398.644 228.704 397.998 229.106C395.925 230.013 393.684 230.506 391.409 230.558C389.135 230.61 386.872 230.219 384.757 229.408C383.314 228.915 377.26 225.985 377.26 225.985V234.91C378.854 235.763 380.531 236.46 382.268 236.991C385.39 238.036 388.668 238.581 391.972 238.606C394.382 238.795 396.807 238.511 399.101 237.773C401.395 237.034 403.512 235.856 405.326 234.308C406.745 232.898 407.857 231.226 408.595 229.392C409.334 227.558 409.685 225.599 409.626 223.631C409.665 221.853 409.247 220.094 408.41 218.511C407.593 217.038 406.554 215.691 405.326 214.514C404.061 213.265 402.634 212.179 401.082 211.284C399.498 210.435 397.998 209.559 396.499 208.765L392.622 206.876C391.471 206.372 390.38 205.748 389.369 205.015C388.401 204.401 387.597 203.576 387.021 202.605C386.381 201.614 386.066 200.46 386.115 199.293C386.079 198.179 386.395 197.08 387.021 196.144C387.571 195.337 388.332 194.685 389.227 194.255C390.471 193.78 391.774 193.466 393.103 193.324C397.992 192.915 402.9 193.865 407.25 196.062V188.616C401.563 186.517 395.406 185.904 389.397 186.836" fill="#66595A"/>
<path d="M529.313 186.916C527.08 187.399 524.937 188.211 522.959 189.326C521.125 190.374 519.545 191.794 518.327 193.487C517.088 195.404 516.459 197.633 516.52 199.894C516.531 202.124 517.031 204.327 517.988 206.355C519.19 208.272 520.763 209.945 522.62 211.283C524.382 212.578 526.274 213.697 528.268 214.624C530.302 215.555 532.222 216.458 533.917 217.362C535.513 218.284 536.984 219.397 538.294 220.674C539.49 221.973 540.117 223.672 540.045 225.411C540.006 226.152 539.786 226.874 539.403 227.516C539.02 228.159 538.485 228.704 537.842 229.107C535.768 230.017 533.527 230.513 531.251 230.565C528.975 230.616 526.712 230.223 524.597 229.408C523.1 228.915 517.113 225.986 517.113 225.986V234.911C518.684 235.763 520.34 236.46 522.055 236.992C525.183 238.033 528.463 238.579 531.77 238.607C534.172 238.794 536.587 238.509 538.872 237.771C541.158 237.032 543.266 235.855 545.072 234.309C546.51 232.912 547.635 231.243 548.379 229.406C549.122 227.569 549.467 225.603 549.393 223.631C549.41 221.862 549.014 220.112 548.235 218.511C547.39 217.035 546.324 215.688 545.072 214.514C543.803 213.271 542.38 212.186 540.836 211.283C539.339 210.435 537.786 209.559 536.232 208.765C534.679 207.971 533.634 207.45 532.42 206.875C531.27 206.355 530.173 205.732 529.144 205.014C528.196 204.388 527.405 203.565 526.828 202.604C526.193 201.613 525.887 200.457 525.952 199.292C525.891 198.178 526.197 197.075 526.828 196.143C527.385 195.332 528.155 194.68 529.059 194.254C530.317 193.769 531.638 193.456 532.985 193.323C537.809 192.929 542.649 193.879 546.936 196.061V188.614C541.288 186.519 535.171 185.905 529.2 186.834" fill="#66595A"/>
<path d="M444.168 188.423C445.919 188.423 446.63 189.438 446.63 191.41V235.846C446.639 236.517 446.416 237.17 446 237.687C445.583 238.203 445.002 238.55 444.36 238.664H433.256L419.909 204.259H427.02C427.647 204.21 428.272 204.366 428.808 204.705C429.343 205.044 429.761 205.549 430.001 206.147L437.55 226.407V188.423H444.168Z" fill="#66595A"/>
<path d="M547.347 173.04C547.347 175.42 546.862 176.366 544.49 176.366H514.46L518.946 170.632C519.435 170.016 520.071 169.532 520.795 169.227C521.519 168.921 522.308 168.803 523.089 168.883H539.347V162.978C539.299 162.335 539.422 161.692 539.703 161.112C539.984 160.533 540.413 160.039 540.947 159.681L547.347 156.27V173.04Z" fill="#66595A"/>
<path d="M504.183 184.403H497.143C496.456 184.41 495.779 184.569 495.16 184.869C494.542 185.169 493.997 185.602 493.566 186.138L492.459 187.559C489.124 186.175 485.536 185.506 481.927 185.597C474.944 185.597 469.72 187.417 466.257 191.056C462.568 195.364 460.704 200.944 461.062 206.608V238.65H467.392H468.159C468.459 238.684 468.763 238.651 469.05 238.555C469.337 238.459 469.599 238.3 469.818 238.092C470.037 237.883 470.208 237.629 470.318 237.348C470.429 237.066 470.477 236.763 470.458 236.461V216.445H478.691C480.508 216.445 480.99 216.019 481.53 215.223L485.419 208.883H470.43C470.43 206.608 470.43 204.476 470.657 202.628C470.799 200.865 471.281 199.146 472.076 197.567C472.857 196.158 474.044 195.018 475.483 194.297C477.502 193.377 479.712 192.958 481.927 193.075C484.046 192.982 486.16 193.361 488.116 194.184C489.576 194.784 490.794 195.854 491.579 197.226C492.38 198.634 492.883 200.192 493.055 201.803C493.298 203.737 493.422 205.683 493.424 207.632V238.622H500.464C500.755 238.657 501.05 238.627 501.327 238.533C501.604 238.439 501.857 238.284 502.067 238.079C502.277 237.875 502.438 237.626 502.539 237.351C502.64 237.076 502.678 236.781 502.65 236.489V206.608C502.942 201.415 501.427 196.28 498.364 192.08L504.041 184.545L504.183 184.403Z" fill="#66595A"/>
<path d="M358.959 191.84C356.826 189.934 354.3 188.472 351.541 187.548C348.782 186.623 345.85 186.257 342.934 186.472C335.685 186.472 330.256 188.234 326.704 191.84C324.784 193.921 323.318 196.345 322.391 198.97C321.464 201.596 321.095 204.37 321.304 207.133V238.642H328.553C328.859 238.685 329.172 238.662 329.467 238.574C329.763 238.486 330.033 238.335 330.259 238.133C330.485 237.932 330.66 237.684 330.771 237.409C330.882 237.134 330.927 236.839 330.901 236.545V209.37C330.901 207.133 330.901 205.036 331.165 203.219C331.344 201.484 331.862 199.796 332.692 198.243C333.489 196.851 334.719 195.728 336.213 195.028C338.327 194.109 340.645 193.696 342.964 193.825C345.135 193.743 347.299 194.115 349.303 194.916C350.781 195.52 352.009 196.571 352.796 197.907C353.679 199.272 354.222 200.812 354.381 202.408C354.614 204.311 354.732 206.224 354.733 208.14V238.586H362.011C362.318 238.629 362.63 238.606 362.925 238.518C363.221 238.43 363.491 238.279 363.717 238.077C363.943 237.876 364.118 237.628 364.229 237.353C364.34 237.078 364.385 236.783 364.359 236.489V207.133C364.559 204.371 364.185 201.599 363.258 198.974C362.332 196.35 360.871 193.926 358.959 191.84Z" fill="#66595A"/>
<path d="M407.272 241.503C407.588 241.498 407.902 241.549 408.193 241.65C408.484 241.752 408.746 241.903 408.962 242.093C409.178 242.284 409.343 242.509 409.447 242.756C409.551 243.002 409.591 243.264 409.565 243.524V252.965C409.499 253.509 409.264 254.03 408.884 254.478C408.505 254.926 407.992 255.286 407.396 255.524L400.858 258.44V241.4L407.272 241.503Z" fill="#66595A"/>
</svg>