<svg width="38" height="24" viewBox="0 0 64 48" fill="none" xmlns="http://www.w3.org/2000/svg">
<path d="M42.7893 24.0187H4V24.5787H42.7893V24.0187Z" fill="#EE3124"/>
<path d="M19.3626 25.876H18.7933C18.7933 25.876 18.1213 26.7253 18.084 26.7626V25.876H17.5986V28.0506H18.084V27.0986C18.112 27.136 18.8213 28.0506 18.8213 28.0506H19.4373C19.4373 28.0506 18.504 26.9026 18.4946 26.884C18.504 26.8746 19.3906 25.876 19.3906 25.876H19.3626Z" fill="#9A8B7D"/>
<path d="M22.0133 26.4733C22.0133 26.8 22.228 26.9493 22.5453 27.0707L22.5826 27.08C22.76 27.1453 22.9466 27.2107 22.9373 27.4067C22.9373 27.556 22.8346 27.7053 22.648 27.7053C22.4426 27.7053 22.2933 27.5467 22.2373 27.3973L22.228 27.3787L21.9106 27.6587L21.92 27.668C22.0973 27.948 22.3493 28.0973 22.648 28.0973C23.124 28.0973 23.4226 27.808 23.4226 27.3507C23.4226 26.9213 23.096 26.7907 22.8346 26.688C22.648 26.6133 22.4986 26.5573 22.4986 26.4173C22.4986 26.2773 22.6386 26.184 22.7693 26.184C22.9093 26.184 23.012 26.24 23.1053 26.352L23.1146 26.3707L23.3386 26.0627L23.3293 26.0533C23.18 25.904 22.8813 25.8107 22.676 25.8107C22.312 25.82 22.0133 26.1 22.0133 26.4733Z" fill="#9A8B7D"/>
<path d="M24.412 25.876H23.9453V28.0506H24.4306V25.876H24.412Z" fill="#9A8B7D"/>
<path d="M26.7921 25.876H26.2227C26.2227 25.876 25.5507 26.7253 25.5134 26.7626V25.876H25.0281V28.0506H25.5134V27.0986C25.5414 27.136 26.2507 28.0506 26.2507 28.0506H26.8667C26.8667 28.0506 25.9334 26.9026 25.9241 26.884C25.9334 26.8746 26.8201 25.876 26.8201 25.876H26.7921Z" fill="#9A8B7D"/>
<path d="M31.8134 25.8199H31.4774V28.0506H31.9534V26.6039C31.9814 26.6413 33.1761 28.0879 33.1761 28.0879H33.5214V25.8759H33.0361V27.3039C33.0081 27.2666 31.8228 25.8199 31.8134 25.8199Z" fill="#9A8B7D"/>
<path d="M38.636 25.8199H38.3V28.0506H38.7854V26.6039C38.8134 26.6413 40.008 28.0879 40.008 28.0879H40.3534V25.8759H39.868V27.3039C39.8307 27.2666 38.636 25.8199 38.636 25.8199Z" fill="#9A8B7D"/>
<path d="M42.6587 25.876H42.0893C42.0893 25.876 41.4173 26.7253 41.38 26.7626V25.876H40.8947V28.0506H41.38V27.0986C41.408 27.136 42.1173 28.0506 42.1173 28.0506H42.7333C42.7333 28.0506 41.8 26.9026 41.7907 26.884C41.8 26.8746 42.6867 25.876 42.6867 25.876H42.6587Z" fill="#9A8B7D"/>
<path d="M20.632 26.4919C20.6507 26.5386 20.9027 27.2106 20.912 27.2293H20.3894C20.3987 27.2013 20.6134 26.5386 20.632 26.4919ZM20.828 25.8199H20.464L19.54 28.0506H20.044C20.044 28.0506 20.2307 27.6119 20.24 27.5933H21.0334C21.0427 27.6119 21.2107 28.0506 21.2107 28.0506H21.724L20.828 25.8199Z" fill="#9A8B7D"/>
<path d="M27.5201 27.4999C27.3614 27.3506 27.2494 27.1359 27.2494 26.9399C27.2494 26.6039 27.5201 26.2493 27.9214 26.2493C28.0894 26.2493 28.2388 26.3053 28.3601 26.4173C28.5094 26.5479 28.5934 26.7439 28.5934 26.9306C28.5934 27.2573 28.2948 27.6586 27.9214 27.6586C27.7348 27.6679 27.6041 27.5746 27.5201 27.4999ZM26.7548 26.9586C26.7548 27.2853 26.8854 27.5933 27.1281 27.8079C27.3428 28.0039 27.6228 28.1066 27.9308 28.1066C28.5934 28.1066 29.0974 27.6119 29.0974 26.9586C29.0974 26.6413 28.9668 26.3333 28.7241 26.1186C28.5094 25.9226 28.2388 25.8199 27.9308 25.8199C27.2681 25.8199 26.7548 26.3239 26.7548 26.9586Z" fill="#9A8B7D"/>
<path d="M30.0401 26.24C30.2081 26.24 30.3107 26.268 30.3667 26.324C30.4041 26.3613 30.4321 26.408 30.4414 26.464C30.4414 26.492 30.4507 26.5106 30.4507 26.5386C30.4507 26.7626 30.3294 26.856 30.0307 26.856H29.9841V26.2306H30.0401V26.24ZM29.5174 25.876H29.5081V28.0506H29.9934V27.2013C30.0214 27.248 30.5441 28.0506 30.5441 28.0506H31.1227C31.1227 28.0506 30.4787 27.164 30.4601 27.136C30.7867 27.08 30.9267 26.7813 30.9267 26.5386C30.9267 26.492 30.9174 26.436 30.9174 26.3893C30.8894 26.2493 30.8334 26.1466 30.7401 26.0626C30.6001 25.9413 30.3947 25.876 30.1334 25.876H29.5174Z" fill="#9A8B7D"/>
<path d="M34.6413 26.24C34.7627 26.24 34.8373 26.2586 34.884 26.3053C34.912 26.3333 34.94 26.38 34.9493 26.436C34.9493 26.4546 34.9587 26.4826 34.9587 26.5013C34.9587 26.7066 34.8747 26.772 34.6413 26.772H34.604C34.604 26.744 34.604 26.2586 34.604 26.24H34.6413ZM34.66 27.1173C34.8187 27.1173 34.968 27.1266 35.052 27.2013C35.0893 27.2293 35.108 27.276 35.1173 27.332C35.1173 27.3506 35.1267 27.3693 35.1267 27.3973C35.1267 27.668 34.912 27.696 34.6787 27.696H34.5947C34.5947 27.668 34.5947 27.136 34.5947 27.1173H34.66ZM34.128 25.876H34.1187V28.0506H34.8467C35.3227 28.0506 35.6027 27.8173 35.6027 27.4346C35.6027 27.3973 35.6027 27.36 35.5933 27.3133C35.556 27.1173 35.4347 26.9306 35.2107 26.884C35.3507 26.7906 35.4067 26.6133 35.4067 26.4733C35.4067 26.4173 35.4067 26.3706 35.3973 26.324C35.3787 26.2026 35.3226 26.1093 35.248 26.0346C35.1266 25.9226 34.9493 25.876 34.6973 25.876H34.128Z" fill="#9A8B7D"/>
<path d="M36.9 26.4919C36.9187 26.5386 37.1707 27.2106 37.18 27.2293H36.6573C36.6667 27.2013 36.8813 26.5386 36.9 26.4919ZM37.096 25.8199H36.732L35.808 28.0506H36.312C36.312 28.0506 36.4987 27.6119 36.508 27.5933H37.3013C37.3107 27.6119 37.4787 28.0506 37.4787 28.0506H37.992L37.096 25.8199Z" fill="#9A8B7D"/>
<path d="M11.5321 25.96H10.8041V26.2026H11.5507V25.96H11.5321Z" fill="#9A8B7D"/>
<path d="M12.036 26.968H11.7373L11.7466 27.64V27.7987C11.7466 27.8734 11.7653 27.9294 11.8213 27.976C11.9053 28.0507 12.0453 28.06 12.0453 28.06H12.3813V27.7987H12.1573C12.1386 27.7987 12.12 27.7987 12.1013 27.78C12.0826 27.7614 12.0733 27.7334 12.0733 27.7054V27.64L12.064 26.9774H12.036V26.968Z" fill="#9A8B7D"/>
<path d="M11.14 26.4919H10.8506L10.8413 27.6399V27.7986C10.8413 27.8733 10.86 27.9293 10.916 27.9759C11 28.0506 11.14 28.0599 11.1493 28.0599H11.5786V27.7986H11.2706C11.252 27.7986 11.2333 27.7986 11.2053 27.7799C11.1866 27.7613 11.1773 27.7333 11.1773 27.7053V27.6306L11.1866 26.4919H11.14Z" fill="#9A8B7D"/>
<path d="M12.5494 26.1C12.5494 26.1466 12.5587 26.632 12.5587 26.632C12.5587 26.8093 12.5307 26.8093 12.3907 26.8093H12.064C12.064 26.7626 12.0547 26.1466 12.0547 26.1093H12.5494V26.1ZM12.8387 25.8573H11.728L11.7374 27.0426H12.6334C12.8107 27.0426 12.8854 26.912 12.8854 26.7813L12.876 25.8573H12.8387Z" fill="#9A8B7D"/>
<path d="M12.7173 26.3334H11.8773L11.8867 26.576H12.7547V26.3334H12.7173Z" fill="#9A8B7D"/>
<path d="M12.5214 27.136H12.2321L12.4561 27.6867L12.5307 27.8827C12.5774 28.004 12.6334 28.0693 12.7827 28.0693H13.0067V27.836H12.9414C12.8574 27.836 12.8107 27.8173 12.7454 27.6587L12.5307 27.136H12.5214Z" fill="#9A8B7D"/>
<path d="M10.6547 26.3427L10.6454 26.5574H11.5507V26.3334H10.6547V26.3427Z" fill="#9A8B7D"/>
<path d="M11.5506 26.8093H10.4213L10.4306 27.052H11.5599L11.5506 26.8093Z" fill="#9A8B7D"/>
<path d="M12.8199 27.1266C12.8199 27.1266 12.7639 27.332 12.7639 27.3413C12.7173 27.444 12.6146 27.416 12.6146 27.416L12.5959 27.4066V27.64H12.8013C12.9693 27.64 12.9786 27.5186 12.9786 27.5186L13.0813 27.136V27.1173L12.8199 27.1266Z" fill="#9A8B7D"/>
<path d="M11.1399 25.8386H10.8319L10.5799 26.3333C10.5519 26.38 10.4493 26.38 10.4493 26.38H10.4399V26.6133H10.6359C10.7573 26.6133 10.7946 26.5106 10.7946 26.5106L11.1493 25.8666L11.1586 25.848H11.1399V25.8386Z" fill="#9A8B7D"/>
<path d="M15.7973 25.8667H14.7053L14.7147 26.1747H15.872L15.8627 25.8667H15.7973Z" fill="#9A8B7D"/>
<path d="M14.36 25.8386H14.08L13.856 26.3333C13.8373 26.3706 13.7533 26.3706 13.7533 26.3706H13.7253L13.7347 26.6226H13.9213C14.0427 26.6226 14.0707 26.52 14.0707 26.5106L14.3787 25.876L14.3973 25.8386H14.36Z" fill="#9A8B7D"/>
<path d="M14.2106 26.5013L14.0613 26.8093C14.024 26.8933 13.9866 26.9213 13.9306 26.9213H13.7906L13.8 27.1827H13.9866C14.2106 27.1827 14.2946 26.996 14.2946 26.9867L14.5186 26.52L14.5373 26.4827H14.2106V26.5013Z" fill="#9A8B7D"/>
<path d="M14.2013 26.9493H13.8933L13.912 28.06H14.2853L14.2666 26.9493H14.2013Z" fill="#9A8B7D"/>
<path d="M15.7413 26.6506H15.4333L15.4613 27.6026V27.64C15.4613 27.7426 15.4613 27.752 15.4333 27.752H14.7333L14.7426 28.0693H15.5453C15.6106 28.0693 15.8346 28.0506 15.8253 27.808L15.8159 27.6493L15.7879 26.6506H15.7413Z" fill="#9A8B7D"/>
<path d="M15.8534 26.5013H14.6774L14.6867 26.8093H15.9187V26.5013H15.8534Z" fill="#9A8B7D"/>
<path d="M9.72137 25.8854H7.45337L7.4627 26.1374L9.76804 26.1467V25.8854H9.72137Z" fill="#9A8B7D"/>
<path d="M9.73071 26.576H7.47205V26.828H9.76805V26.576H9.73071Z" fill="#9A8B7D"/>
<path d="M9.61865 26.2587H7.58398V26.4547H9.64665V26.2587H9.61865Z" fill="#9A8B7D"/>
<path d="M8.76929 25.736H8.44263V26.8093H8.80663L8.79729 25.736H8.76929Z" fill="#9A8B7D"/>
<path d="M8.76926 26.9307H8.45193L8.46126 27.6213V27.7333C8.46126 27.808 8.45193 27.808 8.40526 27.808H8.26526V27.8267V28.06H8.57326C8.66659 28.06 8.82526 28.0227 8.82526 27.7987V27.6307L8.81593 26.9307H8.76926Z" fill="#9A8B7D"/>
<path d="M7.63999 27.892C7.70532 27.892 7.78932 27.8453 7.84532 27.7613C7.84532 27.7613 7.90132 27.6773 7.91066 27.668H8.20932C8.19999 27.6773 8.19066 27.6866 8.19066 27.6866L8.07866 27.8266L8.05999 27.8546C7.91066 28.0413 7.90132 28.0413 7.65866 28.0413H7.48132C7.48132 28.0226 7.48132 27.9106 7.48132 27.892C7.49066 27.9013 7.63999 27.892 7.63999 27.892Z" fill="#9A8B7D"/>
<path d="M7.89198 26.7627C7.89198 26.7627 8.11598 26.7627 8.19998 26.7627C8.19065 26.772 8.18131 26.7814 8.18131 26.7814L8.06931 26.9214C7.89198 27.1267 7.87331 27.136 7.69598 27.1267H7.46265C7.46265 27.108 7.46265 26.996 7.46265 26.9774C7.48131 26.9774 7.58398 26.9774 7.58398 26.9774C7.70531 26.9774 7.73331 26.9494 7.77998 26.884L7.78931 26.8747L7.83598 26.8187L7.89198 26.7627Z" fill="#9A8B7D"/>
<path d="M9.27329 26.8187L9.33862 26.8747L9.34796 26.884C9.42263 26.94 9.45996 26.9774 9.58129 26.9774C9.58129 26.9774 9.74929 26.9774 9.76796 26.9774C9.77729 26.996 9.76796 27.108 9.76796 27.1267H9.52529C9.35729 27.136 9.32929 27.136 9.07729 26.9214L8.91862 26.7814C8.91862 26.7814 8.90929 26.772 8.89062 26.7627C8.97462 26.7627 9.19862 26.7627 9.19862 26.7627C9.20796 26.7627 9.27329 26.8187 9.27329 26.8187Z" fill="#9A8B7D"/>
<path d="M7.49059 27.276C7.49059 27.276 7.48126 27.2667 7.47192 27.2573C7.51859 27.2573 7.76126 27.2573 7.77992 27.2573C7.78926 27.2667 7.79859 27.276 7.79859 27.276C7.86392 27.3507 7.94792 27.36 8.05992 27.36C8.05992 27.36 8.18126 27.36 8.21859 27.36C8.21859 27.3787 8.21859 27.5187 8.21859 27.528C8.19992 27.528 7.96659 27.528 7.96659 27.528C7.70526 27.528 7.66792 27.4907 7.53726 27.332L7.49059 27.276Z" fill="#9A8B7D"/>
<path d="M9.3387 27.6774C9.34803 27.6867 9.40403 27.7707 9.40403 27.7707C9.46936 27.8547 9.55336 27.9014 9.6187 27.9014C9.6187 27.9014 9.74003 27.9014 9.77736 27.9014C9.77736 27.92 9.77736 28.032 9.77736 28.0507C9.74936 28.0507 9.5907 28.0507 9.5907 28.0507C9.34803 28.0507 9.3387 28.0414 9.18003 27.864L9.15203 27.836L9.04003 27.696C9.04003 27.696 9.0307 27.6867 9.02136 27.6774C9.07736 27.6774 9.32003 27.6774 9.3387 27.6774Z" fill="#9A8B7D"/>
<path d="M9.46004 27.276L9.47871 27.248C9.47871 27.248 9.69337 27.248 9.77737 27.248C9.76804 27.2574 9.75871 27.2667 9.75871 27.2667L9.71204 27.3227C9.58137 27.4814 9.54404 27.5187 9.28271 27.5187C9.28271 27.5187 9.08671 27.5187 9.04004 27.5187C9.04004 27.5 9.04004 27.36 9.04004 27.3507C9.05871 27.3507 9.20804 27.3507 9.20804 27.3507C9.32937 27.36 9.40404 27.3414 9.46004 27.276Z" fill="#9A8B7D"/>
<path d="M6.76274 26.7814H4.13074V27.0334H6.80007V26.7814H6.76274Z" fill="#9A8B7D"/>
<path d="M6.54799 25.8667H4.32666V26.1187H6.59466V25.8667H6.54799Z" fill="#9A8B7D"/>
<path d="M6.06265 25.932H5.78265L5.77332 28.0693L6.11865 28.0787V25.932H6.06265Z" fill="#9A8B7D"/>
<path d="M5.21334 26.0067V27.4347C5.21334 27.4347 5.204 27.724 5.036 27.8734C4.868 28.0227 4.82134 28.0694 4.82134 28.0694L4.56934 27.836L4.76534 27.6587C4.76534 27.6587 4.868 27.5747 4.868 27.276V26.0067H5.21334Z" fill="#9A8B7D"/>
<path d="M59.5054 24.0279C59.5054 27.5839 56.6214 30.4679 53.056 30.4679C49.5 30.4679 46.6067 27.5839 46.6067 24.0279C46.6067 20.4719 49.4907 17.5786 53.056 17.5786C56.6214 17.5786 59.5054 20.4719 59.5054 24.0279Z" fill="white"/>
<path d="M56.304 27.36C56.0054 27.2107 55.6974 27.052 55.2214 27.052C54.8014 27.052 54.4654 27.2107 54.1387 27.36C53.8027 27.5187 53.448 27.6773 52.9814 27.6773C52.5707 27.6773 52.2534 27.5373 51.9267 27.3787C51.5814 27.22 51.236 27.0613 50.76 27.0613C50.34 27.0613 50.004 27.2107 49.6774 27.36C49.332 27.5187 48.9774 27.6773 48.5107 27.6773C48.4827 27.6773 48.464 27.6773 48.436 27.6773C48.4827 27.7333 48.5294 27.7987 48.5854 27.8547C49.052 27.836 49.4067 27.6773 49.752 27.528C50.0787 27.3787 50.3774 27.248 50.76 27.248C51.1987 27.248 51.516 27.3973 51.852 27.556C52.188 27.7147 52.5334 27.8733 52.9814 27.8733C53.4854 27.8733 53.8587 27.7053 54.2134 27.5373C54.5307 27.388 54.8387 27.248 55.2214 27.248C55.6507 27.248 55.9307 27.388 56.2294 27.5373C56.556 27.696 56.8827 27.8733 57.4334 27.8733C57.4894 27.8173 57.536 27.752 57.5827 27.696C57.536 27.696 57.4894 27.7053 57.4427 27.7053C56.9294 27.6773 56.612 27.5187 56.304 27.36Z" fill="#9A8B7D"/>
<path d="M55.2214 27.3879C54.8014 27.3879 54.4654 27.5466 54.1387 27.6959C53.8027 27.8546 53.4481 28.0133 52.9814 28.0133C52.5707 28.0133 52.2534 27.8733 51.9267 27.7146C51.5814 27.5559 51.2361 27.3973 50.7601 27.3973C50.3401 27.3973 50.0041 27.5466 49.6774 27.6959C49.3881 27.8266 49.0894 27.9573 48.7161 27.9946C48.7627 28.0506 48.8187 28.0973 48.8654 28.1533C49.2014 28.0973 49.4721 27.9759 49.7427 27.8546C50.0694 27.7053 50.3681 27.5746 50.7507 27.5746C51.1894 27.5746 51.5067 27.7239 51.8427 27.8826C52.1787 28.0319 52.5241 28.1999 52.9721 28.1999C53.4761 28.1999 53.8494 28.0319 54.2041 27.8639C54.5214 27.7146 54.8294 27.5746 55.2121 27.5746C55.6414 27.5746 55.9214 27.7146 56.2201 27.8639C56.4814 27.9946 56.7427 28.1346 57.1254 28.1813C57.1814 28.1253 57.2281 28.0693 57.2841 28.0226C56.8547 27.9946 56.5747 27.8546 56.3041 27.7146C56.0054 27.5466 55.6974 27.3879 55.2214 27.3879Z" fill="#9A8B7D"/>
<path d="M55.2214 27.724C54.8014 27.724 54.4654 27.8827 54.1387 28.032C53.8027 28.1907 53.448 28.3493 52.9814 28.3493C52.5707 28.3493 52.2534 28.2093 51.9267 28.0507C51.5814 27.892 51.236 27.7333 50.76 27.7333C50.34 27.7333 50.004 27.8827 49.6774 28.032C49.4627 28.1253 49.248 28.228 49.0054 28.284C49.0614 28.3307 49.108 28.3773 49.164 28.424C49.3787 28.3587 49.5654 28.2747 49.752 28.1907C50.0787 28.0507 50.3774 27.9107 50.76 27.9107C51.1987 27.9107 51.516 28.06 51.852 28.2187C52.188 28.368 52.5334 28.536 52.9814 28.536C53.4854 28.536 53.8587 28.368 54.2134 28.2C54.5307 28.0507 54.8387 27.9107 55.2214 27.9107C55.6507 27.9107 55.9307 28.0507 56.2294 28.2C56.416 28.2933 56.6027 28.3867 56.836 28.452C56.892 28.4053 56.948 28.3587 56.9947 28.312C56.724 28.256 56.5094 28.144 56.304 28.0413C56.0054 27.8733 55.6974 27.724 55.2214 27.724Z" fill="#9A8B7D"/>
<path d="M55.2214 28.0507C54.8014 28.0507 54.4654 28.2094 54.1387 28.3494C53.8027 28.5081 53.4481 28.6667 52.9814 28.6667C52.5707 28.6667 52.2534 28.5174 51.9267 28.368C51.5814 28.2094 51.2361 28.0414 50.7601 28.0414C50.3401 28.0414 50.0041 28.1907 49.6774 28.34C49.5467 28.396 49.4161 28.452 49.2854 28.508C49.3414 28.5547 49.3881 28.592 49.4441 28.6387C49.5467 28.6014 49.6494 28.5547 49.7521 28.508C50.0787 28.3587 50.3774 28.228 50.7601 28.228C51.1987 28.228 51.5161 28.3774 51.8521 28.5361C52.1881 28.6947 52.5334 28.8534 52.9814 28.8534C53.4854 28.8534 53.8587 28.6854 54.2134 28.5174C54.5307 28.368 54.8387 28.228 55.2214 28.228C55.6507 28.228 55.9307 28.368 56.2294 28.5174C56.3321 28.5734 56.4347 28.62 56.5467 28.6667C56.6027 28.6294 56.6587 28.5827 56.7054 28.5361C56.5654 28.4801 56.4347 28.4147 56.3041 28.3494C56.0054 28.2094 55.6974 28.0507 55.2214 28.0507Z" fill="#9A8B7D"/>
<path d="M55.2213 28.3867C54.8013 28.3867 54.4653 28.5361 54.1386 28.6947C53.8026 28.8534 53.448 29.0121 52.9813 29.0121C52.5706 29.0121 52.2533 28.8627 51.9266 28.7134C51.5813 28.5547 51.236 28.3961 50.76 28.3961C50.34 28.3961 50.004 28.5454 49.6773 28.6947C49.64 28.7134 49.6026 28.7321 49.5653 28.7414C49.6213 28.7787 49.6773 28.8254 49.7333 28.8627C49.7426 28.8627 49.7426 28.8534 49.752 28.8534C50.0786 28.7041 50.3773 28.5734 50.76 28.5734C51.1986 28.5734 51.516 28.7227 51.852 28.8814C52.188 29.0401 52.5333 29.1987 52.9813 29.1987C53.4853 29.1987 53.8586 29.0307 54.2133 28.8627C54.5306 28.7134 54.8386 28.5734 55.2213 28.5734C55.6506 28.5734 55.9306 28.7134 56.2293 28.8627C56.2386 28.8721 56.2573 28.8721 56.2666 28.8814C56.3226 28.8441 56.3786 28.8067 56.4346 28.7694C56.388 28.7507 56.3506 28.7321 56.3133 28.7041C56.0053 28.5454 55.6973 28.3867 55.2213 28.3867Z" fill="#9A8B7D"/>
<path d="M54.1387 29.0214C53.8027 29.18 53.448 29.3387 52.9813 29.3387C52.5707 29.3387 52.2533 29.1987 51.9267 29.04C51.5813 28.8814 51.236 28.7227 50.76 28.7227C50.424 28.7227 50.1347 28.8254 49.864 28.9374C49.9293 28.9747 49.9853 29.012 50.0507 29.0494C50.2747 28.956 50.4987 28.8907 50.76 28.8907C51.1987 28.8907 51.516 29.04 51.852 29.1987C52.188 29.3574 52.5333 29.516 52.9813 29.516C53.4853 29.516 53.8587 29.348 54.2133 29.18C54.5307 29.0307 54.8387 28.8907 55.2213 28.8907C55.5293 28.8907 55.7533 28.956 55.968 29.0587C56.0333 29.0214 56.0893 28.984 56.1453 28.9467C55.8933 28.8254 55.6133 28.7134 55.2213 28.7134C54.8013 28.7227 54.4653 28.872 54.1387 29.0214Z" fill="#9A8B7D"/>
<path d="M53.0093 29.852C49.7707 29.852 47.1387 27.22 47.1387 23.9813C47.1387 20.7427 49.7707 18.1107 53.0093 18.1107C56.248 18.1107 58.88 20.7427 58.88 23.9813C58.88 27.2293 56.2573 29.852 53.0093 29.852ZM53.0093 17C49.1453 17 46.0187 20.1267 46.0187 23.9907C46.0187 27.8547 49.1453 30.9813 53.0093 30.9813C56.864 30.9813 60 27.8547 60 23.9907C60 20.1267 56.8733 17 53.0093 17Z" fill="#EE3124"/>
<path d="M56.276 22.2547C56.2293 22.4693 56.0147 22.7027 55.8933 22.796C55.6227 23.02 53.812 24.1213 53.6067 24.3733C53.4013 24.6253 53.364 24.9987 53.364 25.288V27.416H53.644V26.8653C53.644 26.6787 53.7467 26.38 53.9707 26.156C54.344 25.764 55.212 25.2787 55.772 24.868C56.248 24.5227 56.276 24.056 56.276 23.6453V22.1893V22.2547Z" fill="#00A94F"/>
<path d="M53.3733 24.2426C53.5693 23.9906 55.436 22.852 55.7067 22.6373C55.9773 22.4226 56.2853 22.0866 56.2853 21.6666V19.2866C56.2853 19.6226 56.0987 19.8746 55.856 20.192C55.5853 20.556 54.3253 21.228 53.7093 21.6666C53.0933 22.1053 52.8787 22.5346 52.8787 23.076V27.4253H53.1587V25.1573C53.1493 24.868 53.168 24.4946 53.3733 24.2426Z" fill="#00A94F"/>
<path d="M51.9546 21.788C51.3853 21.3493 50.228 20.416 50.088 20.2293C49.9573 20.0426 49.6493 19.7066 49.6493 19.3053V21.5173C49.6493 21.8346 49.7986 22.404 50.3493 22.8053C50.9 23.2066 51.6746 23.7946 51.908 24.028C52.1413 24.2613 52.356 24.6813 52.356 25.288V27.4253H52.636V23.1786C52.6453 22.4786 52.524 22.2173 51.9546 21.788Z" fill="#00A94F"/>
<path d="M5.86668 21.312V21.844C5.86668 21.9187 5.85735 21.984 5.81068 22.0213C5.78268 22.0493 5.71735 22.0587 5.63335 22.0587H5.30668V20.752C5.38135 20.7613 5.55868 20.78 5.67068 20.8547C5.86668 20.9853 5.86668 21.1533 5.86668 21.312ZM5.84801 20.08C6.46401 20.304 6.69735 20.1453 6.70668 20.136L6.72535 20.1267L6.59468 19.5853L6.54801 19.6133C6.54801 19.6133 6.38001 19.7067 5.92268 19.548C5.49335 19.3987 5.11068 19.3987 4.79335 19.5573C4.29868 19.8093 4.14001 20.3413 4.14001 20.3693V20.7427H4.68135V22.068H4.37335V22.656H5.82001C5.98801 22.656 6.15601 22.656 6.29601 22.5347C6.45468 22.3947 6.47335 22.1987 6.47335 21.984V21.1813C6.47335 20.8827 6.41735 20.6587 6.11868 20.444C5.76401 20.192 5.12001 20.1827 4.89601 20.192C4.99868 20.0893 5.30668 19.884 5.84801 20.08Z" fill="#9A8B7D"/>
<path d="M12.8107 20.444C12.8107 19.7253 12.2973 19.408 11.784 19.408C11.028 19.408 10.692 20.024 10.692 20.0333L10.6733 20.0613L11.168 20.388L11.1867 20.3506C11.1867 20.3506 11.364 20.0053 11.7373 19.996C11.8587 19.996 11.9707 20.0333 12.0547 20.1173C12.148 20.2106 12.204 20.332 12.204 20.4906V22.6653H12.8107V20.444Z" fill="#9A8B7D"/>
<path d="M18.6721 20.444C18.6721 19.7253 18.1587 19.408 17.6454 19.408C16.8894 19.408 16.5534 20.024 16.5534 20.0333L16.5441 20.0613L17.0294 20.388L17.0481 20.3506C17.0481 20.3506 17.2254 20.0053 17.5987 19.996C17.7201 19.996 17.8321 20.0333 17.9161 20.1173C18.0094 20.2106 18.0654 20.332 18.0654 20.4906V22.6653H18.6721V20.444Z" fill="#9A8B7D"/>
<path d="M19.6987 20.2854H20.66H20.688C20.8653 20.2854 21.024 20.2854 21.164 20.4067C21.3227 20.5467 21.3413 20.7427 21.3413 20.9574V21.9934C21.3413 22.3947 21.024 22.6934 20.604 22.6934C20.1933 22.6934 19.8667 22.3854 19.8667 21.9934C19.8667 21.592 20.184 21.284 20.604 21.284C20.66 21.284 20.6973 21.284 20.7253 21.284V21.0414C20.7253 20.92 20.6973 20.8827 20.6787 20.864C20.6507 20.836 20.5853 20.8267 20.5013 20.8267H19.0173V20.3787V20.3694C19.0267 20.3507 19.1667 19.8374 19.6427 19.5854C19.9413 19.4174 20.3053 19.3987 20.7253 19.52C21.1453 19.6414 21.3787 19.52 21.3787 19.52L21.416 19.5014L21.4347 19.5387L21.612 19.996L21.6213 20.024L21.5933 20.0427C21.3133 20.2107 20.9213 20.1547 20.6507 20.08C20.0067 19.8747 19.7733 20.164 19.6987 20.2854ZM20.604 22.1894C20.9027 22.1894 20.9027 21.7507 20.604 21.7507C20.3053 21.7507 20.3053 22.1894 20.604 22.1894Z" fill="#9A8B7D"/>
<path d="M32.1774 20.2854H33.1667C33.344 20.2854 33.5027 20.2854 33.6427 20.4067C33.8014 20.5467 33.82 20.7427 33.82 20.9574V21.9934C33.82 22.3947 33.5027 22.6934 33.092 22.6934C32.6814 22.6934 32.3547 22.3854 32.3547 21.9934C32.3547 21.592 32.672 21.284 33.092 21.284C33.148 21.284 33.1854 21.284 33.2134 21.284V21.0414C33.2134 20.92 33.1854 20.8827 33.1667 20.864C33.1294 20.836 33.0734 20.8267 32.9894 20.8267H31.5054V20.3787V20.3694C31.5147 20.3507 31.6547 19.8374 32.1307 19.5854C32.4294 19.4174 32.7934 19.3987 33.2134 19.52C33.6334 19.6414 33.8667 19.52 33.8667 19.52L33.904 19.5014L34.1094 20.024L34.0814 20.0427C33.8014 20.2107 33.4094 20.1547 33.1387 20.08C32.4854 19.8747 32.2427 20.164 32.1774 20.2854ZM33.0827 22.1894C33.3814 22.1894 33.3814 21.7507 33.0827 21.7507C32.784 21.7507 32.784 22.1894 33.0827 22.1894Z" fill="#9A8B7D"/>
<path d="M23.3481 19.408C22.4987 19.3986 21.9854 19.9306 21.9854 19.94L21.9761 19.9493V20.472L22.0041 20.4813C22.2001 20.5373 22.4054 20.6026 22.4894 20.6306C22.4241 20.696 22.2934 20.864 22.2934 21.1813V22.656H22.9094V21.2746C22.9094 21.1906 22.9094 21.0506 23.0027 20.9293C23.0961 20.808 23.2921 20.7426 23.2921 20.7426L23.3201 20.7333V20.332L23.3014 20.3226C23.2921 20.3226 23.0681 20.2386 22.9467 20.2013C22.8441 20.1733 22.7694 20.1546 22.7321 20.136C22.8254 20.08 23.0401 19.9866 23.3574 19.9866C23.3667 19.9866 24.1507 20.0053 24.1507 20.6493V22.6466H24.7667V20.5186C24.7574 19.856 24.2067 19.4173 23.3481 19.408Z" fill="#9A8B7D"/>
<path d="M27.7907 19.7907C27.7347 19.8374 27.6974 19.8654 27.6694 19.884C27.688 19.912 27.7067 19.9494 27.7347 19.9867C27.828 20.1454 27.8747 20.3507 27.8747 20.5654V22.6467H27.2587V21.704C27.2587 21.5547 26.904 20.948 26.344 20.948C26.1574 20.948 26.008 21.088 26.008 21.256V21.2934C26.036 21.2934 26.0827 21.284 26.1387 21.284C26.5587 21.284 26.876 21.5734 26.876 21.9747C26.876 22.376 26.5587 22.6747 26.1387 22.6747C25.7187 22.6747 25.4014 22.376 25.4014 21.9747V21.256C25.4014 20.8174 25.7187 20.3694 26.3347 20.3694C26.8294 20.3694 27.1467 20.6587 27.2774 20.808V20.64C27.2774 20.0987 26.7174 19.9774 26.5214 19.9774C25.868 19.9774 25.6534 20.4254 25.644 20.444L25.6254 20.472L25.0747 20.2294L25.084 20.2014C25.084 20.192 25.4667 19.3894 26.512 19.3894C26.848 19.3894 27.072 19.4827 27.128 19.5014C27.1467 19.492 27.1747 19.4734 27.2307 19.4267C27.4547 19.2307 27.464 19.0254 27.464 19.0254V18.988H28.1734V19.0254C28.1827 19.0627 28.1454 19.4734 27.7907 19.7907ZM26.1387 22.1894C26.4374 22.1894 26.4374 21.7507 26.1387 21.7507C25.84 21.7507 25.84 22.1894 26.1387 22.1894Z" fill="#9A8B7D"/>
<path d="M27.3987 18.26C27.2401 18.2227 26.9041 18.1667 26.5307 18.1667C26.2321 18.1667 26.0267 18.1853 25.9241 18.204C26.0081 18.092 26.2227 17.896 26.6241 17.896C27.0814 17.9147 27.3054 18.148 27.3987 18.26ZM28.0427 18.372C28.0427 18.3533 27.7814 17.3547 26.6241 17.336C25.5321 17.3267 25.2241 18.3533 25.2147 18.3627V18.372V18.3813V18.8293L25.2614 18.82C25.2707 18.82 25.7374 18.7453 26.4841 18.7453C27.2774 18.7453 27.9867 18.8853 27.9961 18.8853L28.0427 18.8947V18.372Z" fill="#9A8B7D"/>
<path d="M29.7601 19.408C28.9107 19.3986 28.3974 19.9306 28.3974 19.94L28.3881 19.9493V20.472L28.4161 20.4813C28.6027 20.5373 28.8174 20.6026 28.9014 20.6306C28.8267 20.696 28.7054 20.864 28.7054 21.1813V22.656H29.3214V21.2746C29.3214 21.1906 29.3214 21.0506 29.4147 20.9293C29.5081 20.808 29.7041 20.7426 29.7041 20.7426L29.7321 20.7333V20.332L29.7134 20.3226C29.7041 20.3226 29.4801 20.2386 29.3587 20.2013C29.2561 20.1733 29.1814 20.1546 29.1441 20.136C29.2374 20.08 29.4427 19.9866 29.7694 19.9866C29.7787 19.9866 30.5627 20.0053 30.5627 20.6493V22.6466H31.1787V20.5186C31.1694 19.856 30.6094 19.4173 29.7601 19.408Z" fill="#9A8B7D"/>
<path d="M39.4013 20.1173V22.656H38.7853V20.0894L37.684 21.6387V22.656H37.0773V20.8173C37.0493 20.8173 37.012 20.8173 36.956 20.8173C36.536 20.8173 36.2186 20.5093 36.2186 20.0987C36.2186 19.7067 36.5453 19.3987 36.956 19.3987C37.3666 19.3987 37.684 19.6973 37.684 20.0987V20.6307L37.7586 20.5L38.5426 19.436H38.72C38.9066 19.436 39.084 19.436 39.2333 19.5667C39.392 19.7067 39.4013 19.8933 39.4013 20.1173ZM36.9653 19.9213C36.676 19.9213 36.676 20.3507 36.9653 20.3507C37.2546 20.3507 37.2546 19.9213 36.9653 19.9213Z" fill="#9A8B7D"/>
<path d="M42.696 19.4453V21.984C42.696 22.1986 42.6867 22.3946 42.5187 22.5346C42.3787 22.656 42.22 22.656 42.0427 22.656H40.7547C40.5773 22.656 40.4187 22.656 40.2787 22.5346C40.12 22.3946 40.1013 22.1986 40.1013 21.984V21.816C40.1013 21.452 40.316 21.2746 40.4187 21.2093C40.288 21.1346 40.008 20.9013 39.9987 20.3133C39.9987 19.688 40.428 19.408 40.82 19.408C41.24 19.408 41.5573 19.716 41.5573 20.108C41.5573 20.5093 41.24 20.808 40.82 20.808C40.8013 20.808 40.7827 20.808 40.764 20.808C40.792 20.8546 40.8573 20.9293 41.0347 20.9666C41.2587 21.0133 41.5107 20.9853 41.5107 20.9853H41.548V21.5173H41.2027C40.932 21.5173 40.6987 21.536 40.6987 21.816C40.6987 22.0213 40.7547 22.068 41.0253 22.068H41.8467C41.9027 22.068 41.9773 22.068 42.0147 22.0306C42.0613 21.9933 42.0707 21.9186 42.0707 21.8533V19.4453H42.696ZM40.82 19.9213C40.5307 19.9213 40.5307 20.3506 40.82 20.3506C41.1187 20.3506 41.1187 19.9213 40.82 19.9213Z" fill="#9A8B7D"/>
<path d="M7.752 19.9213C7.46267 19.9213 7.46267 20.3506 7.752 20.3506C8.04134 20.3506 8.04134 19.9213 7.752 19.9213ZM10.9067 21.928C10.9067 22.1333 10.8413 22.3106 10.7013 22.4506C10.552 22.6 10.328 22.6933 10.1133 22.6933C9.768 22.6933 9.41334 22.4973 9.41334 22.0586V21.7693C9.35734 21.8066 9.25467 21.8813 9.07734 22.04C8.82534 22.264 8.65734 22.4693 8.564 22.572C8.48934 22.656 8.48 22.6653 8.46134 22.6653H7.90134V20.8266C7.87334 20.8266 7.836 20.8266 7.78 20.8266C7.36 20.8266 7.052 20.5186 7.052 20.108C7.052 19.716 7.36934 19.408 7.78 19.408C8.19067 19.408 8.49867 19.7066 8.49867 20.108V21.536L8.48934 21.8066C8.564 21.732 8.704 21.592 8.93734 21.396C9.17067 21.2093 9.348 21.116 9.41334 21.0973V19.4453H10.0107V21.0226C10.1693 21.0413 10.888 21.1906 10.9067 21.928ZM10.1507 21.6946C9.83334 21.6946 9.83334 22.1706 10.1507 22.1706C10.468 22.1706 10.468 21.6946 10.1507 21.6946Z" fill="#9A8B7D"/>
<path d="M16.2547 20.7799V22.6559H15.6387V20.7893C15.6387 20.3133 15.2653 19.9493 14.7707 19.9493C14.1547 19.9493 13.8747 20.3879 13.8747 20.8173C13.8747 21.0599 13.9307 21.2373 13.9773 21.3399C14.0147 21.1906 14.08 20.9199 14.08 20.9199C14.1733 20.5373 14.4347 20.3039 14.78 20.3039C15.06 20.3039 15.452 20.5093 15.452 20.9573C15.452 21.4333 15.0413 21.6013 14.78 21.6013C14.668 21.6013 14.5653 21.5639 14.5187 21.5453C14.5 21.6106 14.444 21.7693 14.4067 21.9746C14.332 22.3199 14.3227 22.5159 14.3227 22.6186V22.6559H13.7067V22.6186V22.4879C13.7067 22.2173 13.6133 21.9653 13.52 21.7133C13.3987 21.3959 13.2773 21.0693 13.3053 20.6493C13.3707 19.8279 14.108 19.3893 14.78 19.3893C15.2093 19.3893 15.5733 19.5199 15.8533 19.7813C16.1053 20.0426 16.2547 20.3973 16.2547 20.7799ZM14.78 20.7239C14.4813 20.7239 14.4813 21.1626 14.78 21.1626C15.0787 21.1626 15.0787 20.7239 14.78 20.7239Z" fill="#9A8B7D"/>
<path d="M36.2467 21.9933C36.2467 22.3853 35.92 22.6933 35.5094 22.6933C35.0894 22.6933 34.7814 22.3947 34.7814 21.9933V18.8667L34.8187 18.1387L34.3427 18.9413H33.9787L33.624 17.8307C33.6147 17.8213 33.596 17.784 33.5867 17.7467C33.568 17.7 33.5587 17.6907 33.54 17.6907C33.512 17.6813 33.5027 17.672 33.5027 17.6533V17.0093H33.792C33.8387 17.0093 33.8854 17.0373 33.9414 17.084C33.988 17.1307 34.016 17.196 34.016 17.196L34.2867 17.9613L34.856 17H35.4067V21.2933C35.4347 21.2933 35.472 21.284 35.528 21.284C35.9294 21.284 36.2467 21.5827 36.2467 21.9933ZM35.5094 22.1893C35.808 22.1893 35.808 21.7507 35.5094 21.7507C35.2107 21.7507 35.2107 22.1893 35.5094 22.1893Z" fill="#9A8B7D"/>
</svg>