<svg width="38" height="24" viewBox="0 0 1351 306" fill="none" xmlns="http://www.w3.org/2000/svg">
<g clip-path="url(#clip0_440_7491)">
<path d="M1352 161.532C1331.4 162 1310.8 161.957 1290.21 162.027C1284.77 162.045 1280.88 158.767 1276.53 156.309C1272.58 154.077 1269.61 150.988 1267.39 147.163C1266.14 145.009 1264.39 142.647 1264.37 140.366C1264.32 134.143 1264.49 127.797 1265.69 121.721C1266.62 116.973 1269.24 112.556 1271.24 107.677C1266.2 103.557 1264.77 97.0265 1263.92 90.008C1262.57 78.841 1266.86 69.9661 1274.85 62.9091C1277.72 60.3706 1282.08 58.4196 1285.87 58.2197C1297.32 57.6153 1308.82 58.0013 1320.65 58.0013C1320.65 64.9446 1320.65 71.6676 1320.65 79.0008C1312.25 79.0008 1303.82 78.9902 1295.38 79.0052C1291.08 79.0128 1285.85 83.9267 1286.01 87.7703C1286.18 92.1361 1291.04 96.9829 1295.27 96.9884C1303.59 96.9991 1311.92 96.9915 1320.62 96.9915C1320.62 104.236 1320.62 111.291 1320.62 119.001C1312.29 119.001 1303.87 118.982 1295.44 119.007C1288.16 119.029 1283.11 128.378 1286.54 134.896C1288.67 138.943 1291.56 140.196 1295.98 140.081C1306.44 139.81 1316.92 139.994 1327.89 139.994C1327.89 112.63 1327.89 85.578 1327.89 58.4404C1335.98 58.4404 1343.56 58.4404 1351.57 58.2204C1352 92.3546 1352 126.709 1352 161.532Z" fill="#01A6E6"/>
<path d="M613.03 161.999C609.564 161.999 606.591 161.999 602.999 161.999C602.999 159.931 602.999 158.164 602.999 156.398C602.999 136.07 602.425 115.72 603.213 95.4227C603.695 83.0132 607.704 71.1347 618.487 63.5044C622.581 60.6068 628.018 59.2097 633.057 58.1444C639.115 56.8639 645.531 55.5485 651.562 56.243C662.639 57.5186 674.085 59.8317 681.522 69.0718C685.642 74.1908 688.992 80.0914 690.228 87.3341C694.438 111.999 690.244 136.72 692.429 161.68C683.683 161.68 675.625 161.68 667 161.68C667 159.715 667 157.775 667 155.834C667 136.84 667 117.845 667 98.8501C667 86.6315 659.403 79.547 647.349 78.7634C641.529 78.385 636.917 80.705 633.037 83.4607C630.215 85.4648 629.37 90.5009 628.104 94.337C627.51 96.1346 628.002 98.2907 628.002 100.999C632.742 100.999 637.338 100.999 641.934 100.999C646.409 100.999 650.885 100.999 655.679 100.999C655.679 108.681 655.679 116.069 655.679 123.804C646.662 123.804 637.723 123.804 628.282 123.804C628.282 136.526 628.282 148.923 628.282 161.999C623.037 161.999 618.28 161.999 613.03 161.999Z" fill="#01A6E6"/>
<path d="M357.339 67.3751C361.628 62.4701 366.846 60.9878 372.772 59.6063C379.653 58.002 386.449 54.9742 393.45 56.1835C404.467 58.0865 416.043 58.3659 425.905 64.8401C426.607 65.3014 427.782 65.0434 428.814 65.126C428.814 73.7788 428.814 82.2354 428.814 91.817C426.167 90.4575 423.423 89.9227 422.231 88.269C418.892 83.6356 414.044 82.3497 409.074 80.9854C404.347 79.6875 399.569 77.0513 394.932 77.2897C387.242 77.685 378.777 77.9177 373.583 87.3898C377.027 88.8942 380.445 91.0519 384.153 91.8382C388.779 92.8189 393.702 92.3121 398.394 93.0752C412.433 95.3585 425.975 100.299 430.836 114.737C432.193 118.768 432.502 121.247 432.5 125.5C432.496 132.999 429.491 139.845 427.3 143.986C423.787 150.624 418.693 154.999 412.14 157.955C405.87 160.783 397.118 164.169 387.076 163.785C377.644 163.424 371.092 161.212 363.905 156.909C358.147 153.462 353.028 149.641 350.362 143.241C349.971 142.303 349.062 141.423 349.052 140.508C348.95 131.874 348.991 123.238 348.991 114.302C356.379 114.302 363.434 114.302 371.001 114.302C371.001 119.357 371.418 124.352 370.895 129.246C369.753 139.926 383.69 140.072 383.69 140.072C383.69 140.072 394.87 139.541 400.37 138.847C404.027 138.386 406.939 131.798 406.578 128.021C406.023 122.216 403.214 120.093 397.489 118.679C391.459 117.19 385.47 115.906 379.396 114.658C371.306 112.996 363.234 109.771 356.09 105.611C352.624 103.593 349.756 98.0713 349.342 93.8671C348.707 87.4308 346.853 80.1679 352.657 74.4286C354.532 72.5743 355.63 69.9345 357.339 67.3751Z" fill="#01A6E6"/>
<path d="M441 65.0851C441 62.6167 441 60.638 441 58.3311C448.988 58.3311 456.711 58.3311 465 58.3311C465 60.1384 465 61.9132 465 63.688C465 83.8517 464.791 104.019 465.103 124.178C465.228 132.288 470.798 140.977 481.095 140.059C486.014 139.621 490.873 140.25 495.467 137.164C499.061 134.749 501.215 131.756 503.065 128.046C506.444 121.271 504.812 114.135 504.92 107.172C505.17 91.0247 504.999 74.8706 504.999 58.3605C512.926 58.3605 520.652 58.3605 528.692 58.3605C528.692 92.6792 528.692 127.067 528.692 161.728C520.893 161.728 513.155 161.728 505.195 161.728C505.056 159.821 504.926 158.049 504.728 155.336C501.824 157.407 499.66 159.942 497.009 160.648C490.333 162.425 483.852 166.538 476.381 162.458C473.361 160.81 469.359 161.074 465.988 159.926C462.592 158.77 459.274 157.19 456.203 155.331C453.539 153.718 450.823 151.81 448.913 149.41C444.557 143.937 440.734 138.352 440.869 130.563C441.244 108.906 440.999 87.2382 441 65.0851Z" fill="#01A6E6"/>
<path d="M1192.04 97.4998C1192.01 119.091 1192.01 140.224 1192.01 161.678C1183.99 161.678 1176.27 161.678 1168.27 161.678C1168.27 127.237 1168.27 92.8589 1168.27 58.2406C1176.2 58.2406 1183.94 58.2406 1191.91 58.2406C1191.91 60.2477 1191.91 62.0484 1191.91 64.0294C1199.57 59.5418 1207.23 55.4074 1216.1 56.0947C1229.88 57.1622 1242.61 61.372 1250.97 73.1808C1253.71 77.0562 1256.35 81.3348 1256.22 87.1655C1255.69 110.143 1256 133.139 1256 156.128C1256 157.92 1256 159.713 1256 161.749C1247.99 161.749 1240.38 161.749 1232 161.749C1232 160.107 1232 158.362 1232 156.617C1232 135.626 1232.01 114.636 1232 93.6463C1231.99 87.2731 1228.49 82.6777 1222.37 80.9763C1219.87 80.2806 1217.35 79.6435 1214.84 79.0025C1208.83 77.472 1204.22 81.4015 1199.43 83.616C1196.26 85.0827 1194.28 88.8846 1193.94 92.9829C1193.82 94.3787 1192.72 95.6909 1192.04 97.4998Z" fill="#01A6E6"/>
<path d="M791.011 56.96C797.186 56.4098 803.377 54.1051 809.158 57.8742C809.754 58.2627 810.792 58.0064 811.624 57.9953C820.04 57.8831 827.625 60.8355 834.945 64.5363C839.553 66.8659 839.831 68.9977 837.821 73.866C836.929 76.0271 837.143 78.6789 837.026 81.1162C836.907 83.5875 837 86.0689 837 90.2887C832.65 87.7459 829.456 85.4046 825.905 83.9191C821.153 81.9315 816.128 80.593 811.211 79.0043C809.033 78.3005 806.865 77.515 804.635 77.0297C797.991 75.5837 792.45 79.2059 786.656 81.3604C785.434 81.8148 784.206 84.0356 784.192 85.4544C784.178 86.8719 785.382 89.1364 786.581 89.5713C789.927 90.7851 793.52 91.4206 797.065 91.9637C804.325 93.0763 811.667 93.7225 818.869 95.1093C821.352 95.5874 823.601 97.5774 825.82 99.08C833.814 104.494 840.864 110.508 840.024 121.571C839.564 127.634 839.774 133.776 838.918 139.773C837.771 147.814 831.546 152.133 825.192 155.937C821.496 158.15 817.618 160.75 813.524 161.46C805.154 162.913 796.571 163.895 788.099 163.746C782.209 163.642 776.409 160.995 770.477 160.094C764.297 159.155 758.995 153.745 759.002 147.453C759.008 142.453 759.026 137.454 759.057 132.454C759.058 132.137 759.213 131.82 759.541 130.569C763.418 132.325 767.358 133.713 770.877 135.806C775.171 138.36 779.59 139.786 784.575 140.081C787.377 140.246 790.099 141.758 792.899 141.915C799.742 142.299 806.032 139.89 811.972 136.836C816.513 134.502 816.006 123.392 811.32 121.035C807.755 119.241 804.618 116.973 800.053 116.748C793.454 116.421 786.718 114.969 780.459 112.792C774.488 110.714 769.042 107.114 763.398 104.12C762.782 103.794 762.173 103.137 761.919 102.493C757.683 91.7214 756.574 81.1539 763.44 70.8238C767.254 65.0848 772.056 61.1682 778.97 59.9619C782.965 59.2648 786.907 58.2649 791.011 56.96Z" fill="#01A6E6"/>
<path d="M1025.98 68.4979C1025.66 74.6816 1025.46 80.4529 1024.93 86.1949C1024.63 89.4722 1022.43 89.9446 1020.11 88.1541C1013.4 82.9962 1006.31 79.0939 997.52 78.9004C994.48 78.8335 991.309 76.734 988.47 77.2057C983.567 78.0206 978.693 79.7218 974.159 81.8147C970.949 83.2964 971.192 87.8757 974.299 89.5189C976.445 90.6539 978.855 91.6031 981.24 91.9066C986.133 92.5293 991.146 92.307 996.006 93.0801C1003.33 94.2446 1010.43 96.3957 1016.33 101.156C1019.08 103.365 1022.06 105.658 1023.83 108.581C1025.86 111.923 1027.06 115.925 1027.87 119.797C1028.51 122.83 1027.96 126.104 1028.01 129.27C1028.19 140.2 1024.65 149.429 1014.88 155.074C1009 158.473 1003.07 162.031 995.737 162.117C990.734 162.176 985.686 164.137 980.762 163.788C974.83 163.368 969.055 160.726 963.124 160.314C958.201 159.972 954.046 158.463 950.146 155.919C948.784 155.031 947.213 153.243 947.146 151.801C946.832 145.003 947.006 138.183 947.006 130.281C951.454 132.353 955.136 134.301 958.992 135.8C963.151 137.416 967.458 138.66 971.729 139.971C974.192 140.726 976.679 141.611 979.214 141.885C986.84 142.71 993.897 140.12 1000.31 136.616C1005.15 133.969 1003.32 123.888 998.467 120.763C992.178 116.715 985.301 115.885 978.152 114.728C971.242 113.61 964.685 110.299 957.983 107.919C956.53 107.404 954.907 107.031 953.74 106.112C950.701 103.719 947.338 101.784 947.765 96.6892C948.347 89.7261 947.461 82.6265 948.233 75.6999C948.513 73.1826 951.843 71.0642 953.617 68.6431C959.226 60.9858 967.174 58.5104 976.183 57.9274C979.906 57.6864 983.683 55.767 987.254 56.1788C995.986 57.1856 1004.59 59.263 1013.29 60.6011C1018.62 61.4204 1023.33 62.8823 1025.98 68.4979Z" fill="#01A6E6"/>
<path d="M1067 234.949C1067 225.163 1067 215.869 1067 206.288C1072.41 206.288 1077.47 206.288 1082.77 206.288C1082.77 229.095 1082.77 251.822 1082.77 274.79C1077.79 274.79 1072.85 274.79 1068.45 274.79C1058.93 261.734 1049.52 248.827 1040 235.776C1040 247.18 1039.87 258.493 1040.07 269.8C1040.14 273.581 1039.24 275.208 1035.08 275.082C1025.95 274.804 1016.79 274.995 1007.35 274.995C1006.52 271.928 1006.06 268.823 1004.78 266.114C1004.11 264.715 1002 263.205 1000.49 263.142C993.196 262.835 985.883 263.004 978.844 263.004C977.779 266.29 977.165 269.381 975.752 272.048C975.024 273.421 972.935 274.725 971.352 274.868C967.089 275.254 962.768 275 956.838 275C958.925 269.197 960.665 264.242 962.488 259.318C964.625 253.546 966.666 247.731 969.06 242.065C971.763 235.667 974.936 229.468 977.664 223.08C979.341 219.152 981.112 215.125 981.834 210.967C982.477 207.261 984.099 205.952 987.515 205.993C990.678 206.03 993.841 206.001 996.87 206.001C999.928 211.954 1003.42 217.597 1005.8 223.675C1008.7 231.082 1010.49 238.913 1013.11 246.441C1014.13 249.392 1016.25 251.947 1017.58 254.813C1019.75 259.473 1021.69 269.6 1024 274.931C1024 253.561 1024 227.368 1024 205.995C1028.84 205.995 1033.28 205.909 1037.72 206.069C1038.59 206.1 1039.66 206.905 1040.23 207.66C1043.51 212.018 1046.78 216.387 1049.83 220.908C1053.37 226.151 1056.51 231.665 1060.13 236.845C1062.09 239.649 1064.7 242.002 1067 244.539C1067 241.842 1067 238.641 1067 234.949ZM991.414 247.999C993.178 247.999 994.943 247.999 996.645 247.999C994.881 242.993 993.278 238.443 991.641 233.793C989.264 238.512 987.052 242.905 984.486 247.999C986.969 247.999 988.744 247.999 991.414 247.999Z" fill="#01A6E6"/>
<path d="M913 142.999C913 128.505 913.174 114.508 912.935 100.518C912.789 91.9634 909.587 84.7121 901.968 80.0087C901.216 79.545 900.313 79.0523 899.476 79.0459C890.511 78.9768 881.545 79.0029 872.078 79.0029C872.078 106.728 872.078 134.113 872.078 161.746C864.308 161.746 857.037 161.746 849.382 161.746C849.382 127.454 849.382 93.0736 849.382 58.2075C850.808 58.1435 852.404 58.0114 853.999 58.0097C868.826 57.9938 883.656 58.152 898.48 57.9507C909.679 57.7987 919.142 61.5503 926.779 69.6428C928.574 71.544 930.141 73.9997 930.885 76.4786C932.281 81.1298 933.803 85.9739 933.864 90.7557C934.164 114.238 934 137.726 934 161.605C927.145 161.605 920.42 161.605 913 161.605C913 155.685 913 149.592 913 142.999Z" fill="#01A6E6"/>
<path d="M1083.52 79.0024C1077.25 78.9995 1071.45 78.9995 1065.32 78.9995C1065.32 71.995 1065.32 65.2736 1065.32 58.0092C1073.48 58.0092 1081.69 57.2066 1089.66 58.2218C1098.7 59.3711 1107.05 63.6968 1112.23 71.2726C1115.66 76.2846 1118.27 82.2682 1118.1 89.0626C1117.76 102.547 1118.1 116.046 1117.97 129.537C1117.84 143.067 1111.5 152.175 1099.17 158.31C1090.18 162.785 1081.14 161.591 1072.15 162.017C1057.74 135.4 1043.42 108.94 1028.96 82.2228C1037.78 82.2228 1046.4 82.2228 1055.61 82.2228C1066.14 100.914 1076.86 119.963 1087.65 139.123C1093.07 134.811 1095.73 129.758 1095.05 123.069C1094.76 120.266 1094.74 117.38 1095.07 114.587C1095.39 111.851 1096.98 109.146 1096.83 106.494C1096.34 97.7073 1096.16 88.6393 1088.97 81.9992C1087.58 80.7086 1085.65 79.9886 1083.52 79.0024Z" fill="#01A6E6"/>
<path d="M1123.99 50.9283C1121.89 50.2453 1120.21 49.0957 1118.53 49.0813C1102.54 48.9438 1086.55 48.9989 1070.56 48.9986C1068.92 48.9986 1067.28 48.9986 1065.32 48.9986C1065.32 41.9911 1065.32 35.2702 1065.32 27.999C1066.98 27.999 1068.59 27.999 1070.2 27.999C1084.53 27.999 1098.86 28.2131 1113.17 27.9229C1122.53 27.7332 1131.64 29.6645 1139.77 33.4103C1144.77 35.7128 1148.63 41.5096 1151.77 46.5123C1154.18 50.3562 1155.77 55.3981 1155.82 59.9273C1156.16 91.903 1156 123.884 1156 155.863C1156 157.679 1156 159.494 1156 161.653C1148.38 161.653 1140.99 161.653 1133 161.653C1133 159.907 1133 158.138 1133 156.37C1133 125.39 1133.01 94.4097 1132.99 63.4298C1132.99 58.0398 1129.25 52.6575 1123.99 50.9283Z" fill="#01A6E6"/>
<path d="M958.978 243.41C959.668 247.188 960.774 250.52 960.912 253.891C961.212 261.213 955.639 267.628 949.246 271.188C941.549 275.474 933.581 274.939 925.487 274.992C918.184 275.041 910.881 275.003 903.29 275.003C903.29 252.03 903.29 229.316 903.29 205.999C914.43 205.999 925.535 206.294 936.616 205.905C945.374 205.597 951.716 210.391 956.076 216.422C959.297 220.878 961.481 227.378 957.302 233.635C955.238 236.725 954.343 240.596 958.978 243.41ZM943.038 254.117C944.445 251.367 943.656 249.468 940.982 247.971C933.914 244.016 926.498 246.87 919.375 246.034C919.375 250.735 919.375 254.78 919.375 258.999C925.216 258.999 930.728 259.406 936.13 258.813C938.535 258.549 940.719 256.27 943.038 254.117ZM937.801 222.037C931.573 222.037 925.344 222.037 919.244 222.037C919.244 225.706 919.244 228.642 919.244 232.11C927.412 231.177 936.161 234.404 942.33 226.632C941.004 225.063 939.813 223.653 937.801 222.037Z" fill="#01A6E6"/>
<path d="M594 106.002C594 124.804 594 143.107 594 161.703C585.606 161.703 577.548 161.703 568.998 161.703C568.998 154.473 568.998 147.356 568.998 140.239C568.998 125.073 568.922 109.906 569.042 94.7412C569.081 89.8656 567.556 85.6939 563.632 83.0305C560.849 81.1416 557.431 79.5009 554.154 79.1744C548.062 78.5673 541.865 79.0003 535.356 79.0003C535.356 72.0709 535.356 65.3459 535.356 58.0119C544.242 58.0119 553.348 56.9272 562.068 58.2976C572.058 59.8675 581.557 63.9649 587.691 72.9267C589.465 75.5195 591.377 78.4607 591.806 81.4462C592.95 89.4056 593.322 97.4759 594 106.002Z" fill="#01A6E6"/>
<path d="M721.793 60.0041C728.987 61.7396 735.193 64.6951 739.091 70.623C741.929 74.9393 744.898 79.7231 745.799 84.6649C750.238 109.017 747.15 133.679 747.996 158.197C748.035 159.325 748.001 160.456 748.001 161.774C739.6 161.774 731.662 161.774 723 161.774C723 160.046 723 158.293 723 156.541C723 137.047 722.808 117.55 723.085 98.0604C723.214 89.026 718.038 83.7862 711.386 79.3173C710.438 78.6804 708.794 79.0155 707.472 79.01C701.506 78.9848 695.539 78.999 689.289 78.999C689.289 71.9226 689.289 65.201 689.289 57.8937C700.098 58.8721 710.892 56.0896 721.793 60.0041Z" fill="#01A6E6"/>
<path d="M628.965 204.956C641.538 204.341 656.435 207.291 662.048 221.866C663.083 224.554 663.838 227.349 665.01 230.989C659.227 230.989 654.603 231.21 650.026 230.844C648.776 230.744 646.822 229.004 646.646 227.804C646.045 223.692 642.942 222.578 639.99 220.884C634.604 217.792 623.782 220.632 621.027 226.14C618.991 230.208 615.533 234.281 615.438 238.415C615.328 243.223 617.48 248.507 619.949 252.845C623.123 258.42 635.302 261.912 640.886 258.674C644.506 256.575 646.819 252.224 650.588 247.878C642.433 247.878 635.975 247.878 629.264 247.878C629.264 243.331 629.264 239.053 629.264 234.385C641.173 234.385 653.245 234.385 665.676 234.385C665.676 247.594 665.676 261.122 665.676 274.84C660.688 274.84 655.74 274.84 650.405 274.84C650.125 273.655 649.819 272.354 649.646 271.622C646.22 272.146 642.794 271.876 640.228 273.231C635.052 275.963 630.634 275.117 625.374 273.321C621.907 272.138 618.647 270.848 615.286 269.387C608.907 266.615 605.508 261.706 603.092 255.853C601.873 252.901 601.728 249.516 600.979 246.355C600.416 243.973 598.756 241.457 599.176 239.313C600.257 233.801 602.141 228.437 603.886 223.073C604.374 221.573 605.539 220.303 606.313 218.884C610.897 210.484 617.948 206.163 627.523 205.937C627.973 205.926 628.416 205.583 628.965 204.956Z" fill="#01A6E6"/>
<path d="M564.203 248.082C560.914 244.063 558.013 240.16 555.151 236.309C555.151 248.805 555.151 261.631 555.151 274.73C549.734 274.73 544.664 274.73 539.295 274.73C539.295 252.002 539.295 229.28 539.295 206.562C553.784 205.687 551.696 203.825 559.173 215.389C561.234 218.575 563.934 221.341 566.119 224.455C569.848 229.77 573.383 235.22 577.046 240.582C577.712 241.558 578.602 242.382 579.982 243.95C579.982 230.884 579.982 218.678 579.982 206.239C585.427 206.239 590.488 206.239 595.775 206.239C595.775 229.066 595.775 251.667 595.775 274.997C591.903 274.997 587.975 275.158 584.074 274.9C582.866 274.82 581.375 273.866 580.625 272.857C575.393 265.826 570.282 258.703 565.252 251.525C564.658 250.677 564.793 249.319 564.203 248.082Z" fill="#01A6E6"/>
<path d="M439 206C442.329 206 445.217 206.363 447.978 205.926C454.612 204.878 460.646 206.886 465.881 210.261C468.673 212.061 471.484 216.037 471.673 219.188C472.018 224.952 474.173 231.453 469.921 236.635C466.576 240.712 469.504 244.118 470.097 247.79C470.588 250.836 472.201 253.946 471.829 256.837C470.993 263.326 476 266.793 478.369 271.596C478.835 272.541 479.745 273.266 481.061 274.81C472.785 274.81 465.687 274.81 457.304 274.81C456.872 269.077 456.336 263.293 456.028 257.498C455.73 251.872 451.957 248.02 446.407 248.002C442.114 247.988 437.82 247.999 433.032 247.999C433.032 257.104 433.032 265.829 433.032 274.772C427.599 274.772 422.663 274.772 417.362 274.772C417.362 252.087 417.362 229.382 417.362 206C424.325 206 431.413 206 439 206ZM453.994 231.484C454.641 229.38 455.917 227.209 455.7 225.198C455.571 224.003 453.14 222.235 451.662 222.151C445.602 221.805 439.511 222.007 433.263 222.007C433.263 226.191 433.263 229.896 433.263 234.964C440.214 233.904 446.732 232.909 453.994 231.484Z" fill="#01A6E6"/>
<path d="M384.005 238.131C388.233 242.726 393.691 246.285 396.372 251.321C400.01 258.157 406.657 262.299 410.025 269.078C410.862 270.763 411.706 272.445 412.869 274.773C405.332 274.773 398.883 274.773 392.768 274.773C391.357 272.231 390.567 269.146 388.581 267.536C382.318 262.459 378.229 255.527 372.605 249.96C371.568 248.933 369.237 247.569 368.732 247.958C367.17 249.159 365.262 251.08 365.167 252.815C364.774 259.948 365.003 267.115 365.003 274.643C359.79 274.643 354.733 274.643 349.334 274.643C349.334 252.018 349.334 229.301 349.334 206.291C354.387 206.291 359.442 206.291 364.809 206.291C364.809 214.217 364.809 221.997 364.809 230.756C366.313 229.346 367.175 228.476 368.1 227.68C376.032 220.846 383.966 214.015 391.933 207.223C392.587 206.666 393.487 206.068 394.281 206.057C400.761 205.963 407.242 206.004 414.944 206.004C413.664 207.642 413.097 208.594 412.322 209.325C405.056 216.17 397.81 223.038 390.418 229.746C388.851 231.167 386.698 231.934 384.842 233.048C382.792 234.277 383.25 236 384.005 238.131Z" fill="#01A6E6"/>
<path d="M1130.96 247.966C1137.91 253.25 1140.59 261.976 1148.39 266.297C1150.49 267.462 1150.9 271.68 1152.29 274.988C1146.35 274.988 1140.89 275.081 1135.44 274.906C1134.41 274.873 1133.23 273.959 1132.45 273.137C1125.13 265.42 1117.86 257.659 1110.66 249.826C1109.97 249.077 1109.91 247.758 1109.73 247.23C1101.66 247.639 1102.92 253.507 1102.99 258.785C1103.05 263.936 1103 269.089 1103 274.618C1098.11 274.618 1093.38 274.618 1088.33 274.618C1088.33 252.013 1088.33 229.306 1088.33 206.298C1093.03 206.298 1097.75 206.298 1102.88 206.298C1102.88 214.279 1102.88 222.181 1102.88 230.935C1109.4 225.074 1115.29 219.808 1121.15 214.511C1127.18 209.057 1133.46 204.443 1142.39 205.923C1145.29 206.405 1148.34 205.999 1151.36 205.999C1154.21 211.981 1147.9 212.573 1145.79 214.75C1139.38 221.379 1131.95 227.021 1124.88 232.995C1123.65 234.033 1122.21 234.822 1121.11 235.563C1124.13 239.503 1127.35 243.694 1130.96 247.966Z" fill="#01A6E6"/>
<path d="M744.183 274.09C739.354 274.521 734.524 274.28 729.325 274.743C729.325 251.323 729.325 229.277 729.325 206.278C734.43 206.278 739.496 206.278 745.005 206.278C745.005 214.71 745.005 223.117 745.005 231.754C752.708 231.754 759.979 231.754 767.731 231.754C767.731 223.437 767.731 215.033 767.731 206.318C773.262 206.318 778.322 206.318 783.695 206.318C783.695 229.032 783.695 251.749 783.695 274.743C778.663 274.743 773.722 274.743 768.281 274.743C768.281 265.851 768.281 256.784 768.281 247.015C760.55 247.015 753.294 247.015 745.354 247.371C744.507 256.514 744.345 265.302 744.183 274.09Z" fill="#01A6E6"/>
<path d="M794.267 250.431C796.977 244.394 799.514 238.73 802.003 233.045C804.793 226.671 808.909 220.504 810.004 213.846C811.928 202.15 820.183 207.169 825.695 205.953C828.205 210.752 830.789 214.985 832.693 219.504C835.264 225.605 837.181 231.979 839.628 238.137C841.4 242.595 843.732 246.829 845.536 251.276C847.847 256.975 849.877 262.787 852.033 268.549C852.202 268.999 852.358 269.464 852.598 269.876C854.85 273.738 854.277 274.89 849.861 274.982C845.535 275.072 841.206 275.002 836.346 275.002C835.553 272.119 835.128 268.991 833.789 266.322C833.038 264.824 830.817 263.228 829.188 263.149C822.05 262.806 814.887 263.002 807.381 263.002C806.558 266.037 806.042 269.115 804.832 271.89C804.253 273.218 802.41 274.759 801.052 274.847C795.779 275.189 790.471 274.987 785.04 274.987C788.164 266.62 791.118 258.708 794.267 250.431ZM814 247.796H824.569L819.494 233.51L814 247.796Z" fill="#01A6E6"/>
<path d="M518 235.986C518 225.861 518 216.234 518 206.305C523.354 206.305 528.405 206.305 533.993 206.305C533.993 220.161 534.93 234.009 533.628 247.643C532.896 255.31 532.054 264.395 523.641 269.074C520.914 270.591 518.061 272.037 515.087 272.913C511.577 273.948 507.776 275.199 504.278 274.801C498.356 274.127 492.12 273.138 486.891 270.527C483.473 268.821 481.009 264.301 479.213 260.52C477.669 257.27 477.151 253.291 477.092 249.62C476.864 235.324 476.999 221.021 476.999 206.361C482.255 206.361 487.316 206.361 493.014 206.361C493.014 213.79 493.015 221.376 493.014 228.961C493.012 234.786 492.88 240.615 493.069 246.434C493.142 248.688 493.619 251.047 494.461 253.137C497.786 261.398 505.135 258.993 511.264 258.714C512.907 258.639 515.333 255.513 515.785 253.436C516.992 247.888 517.322 242.148 518 235.986Z" fill="#01A6E6"/>
<path d="M719.842 206C722.949 205.624 724.3 206.367 724.059 209.408C723.797 212.696 723.999 216.022 723.999 219.833C717.039 219.833 710.312 219.833 703.144 219.833C703.144 238.375 703.144 256.42 703.144 274.738C697.64 274.738 692.582 274.738 687.065 274.738C687.065 256.627 687.065 238.582 687.065 220.038C680.235 220.038 673.839 220.038 667.23 220.038C667.23 215.271 667.23 211.002 667.23 206C684.576 206 701.967 206 719.842 206Z" fill="#01A6E6"/>
<path d="M866.904 274.996C863.124 274.996 859.83 274.996 856.271 274.996C856.271 251.987 856.271 229.298 856.271 206.304C861.383 206.304 866.432 206.304 871.743 206.304C871.743 229.084 871.743 251.776 871.743 274.996C870.255 274.996 868.822 274.996 866.904 274.996Z" fill="#01A6E6"/>
<path d="M998.93 191.269C996.169 190.399 993.46 189.995 990.36 189.532C990.36 183.445 990.36 177.058 990.36 170.331C1000.3 170.331 1010.34 170.331 1020.7 170.331C1020.7 179.983 1020.7 189.682 1020.7 199.699C1013.55 199.699 1006.5 199.699 998.983 199.699C998.983 196.959 998.983 194.347 998.93 191.269Z" fill="#01A6E6"/>
<path d="M744.539 273.849C744.345 265.302 744.507 256.514 744.892 247.38C745.042 255.892 744.969 264.75 744.539 273.849Z" fill="#01A6E6"/>
<path fill-rule="evenodd" clip-rule="evenodd" d="M293.708 81.5104C293.708 81.5104 303.403 80.8065 292.734 69.879C292.734 69.879 274.996 50.6573 240.971 36.1029C222.733 28.2982 202.228 31.5478 204.145 50.4138C205.494 63.6626 192.138 68.7244 181.625 67.5113C169.282 66.0839 161.866 56.7325 163.819 49.035C165.907 40.8261 170.588 34.4611 177.521 29.521C182.219 26.1668 185.498 23.8016 194.065 22.1598C199.271 21.1611 206.094 19.6069 207.918 25.0731C211.494 23.3266 217.832 12.3553 197.237 12.158C197.237 12.158 194.155 6.00002 187.23 7.28374C187.23 7.28374 166.739 -11.2876 143.957 11.7098C143.957 11.7098 135.012 14.9787 134.521 11.8218C136.548 13.3053 139.854 8.80373 135.337 7.25449C133.215 6.52129 130.746 8.57964 130.362 10.5746C130.058 12.119 130.542 15.5122 135.058 16.1626C136.248 16.3331 138.394 16.1626 138.394 16.1626L136.899 17.7946C130.091 20.496 123.468 18.4036 122.234 13.9215C123.829 14.7765 125.565 13.7121 126.123 12.0629C126.684 10.3992 125.376 8.08515 122.729 7.72951C119.038 7.22041 117.285 11.2031 118.075 14.7035C119.286 20.0868 125.151 23.9185 132.653 22.9928L131.351 24.8027C131.351 24.8027 123.831 33.5183 117.688 43.4203C111.439 53.4805 85.9927 64.5761 90.3479 40.6141C91.7361 32.9971 77.9893 23.8649 54.1129 39.06C41.3585 47.1813 25.6984 59.356 14.1079 79.0697C14.1079 79.0697 8.89261 86.6063 17.4631 86.8426C17.4631 86.8426 -2.12885 106.323 0.190855 129.515C0.190855 129.515 1.9352 135.892 6.57193 131.839C6.57193 131.839 -0.964253 152.127 3.67175 169.522C3.67175 169.522 5.99048 179.38 11.7911 174.16C11.7911 174.16 16.9864 198.783 28.0183 219.383C36.7191 235.621 52.9519 259.396 46.5767 265.199C40.2568 270.937 31.3353 259.505 32.7303 264.111C35.6799 273.851 46.5007 275.279 52.3697 270.992C67.4494 259.977 45.2428 233.431 38.4603 199.675C38.4603 199.675 43.0931 199.095 41.2102 188.145C41.2102 188.145 52.3697 192.135 50.4152 170.212C50.4152 170.212 62.2283 176.484 62.2283 161.407C62.2283 161.407 74.4022 164.304 76.72 148.069C76.72 148.069 96.5879 150.954 101.073 139.95C101.073 139.95 106.29 146.328 116.069 136.114C118.498 143.09 123.434 149.381 129.898 154.704C129.898 154.704 128.612 164.504 116.975 167.9C116.975 167.9 102.752 162.312 87.3914 167.9C73.2318 173.043 78.9228 187.153 89.2003 183.778C86.085 182.223 85.1781 177.558 90.2117 176.554C95.2386 180.378 100.674 178.165 103.291 174.747C103.291 174.747 113.36 181.785 120.001 174.543C123.22 174.741 125.218 179.266 120.799 181.381C129.386 183.106 132.477 174.747 128.928 170.212C128.928 170.212 130.937 168.998 133.215 167.24C133.215 167.24 135.902 164.814 137.915 161.971C137.915 161.971 146.369 168.163 162.034 171.635C162.034 171.635 153.851 184.197 141.737 186.618C141.737 186.618 124.544 181.426 112.941 188.145C112.941 188.145 106.692 191.164 107.664 197.573C108.392 202.383 112.52 205.739 118.738 204.959C116.213 203.8 110.629 197.974 117.726 195.472C122.414 202.322 134.868 197.385 136.198 195.423C138.581 197.838 149.014 196.858 150.402 193.247C153.741 192.693 158.608 194.218 156.801 200.199C160.839 199.648 167.373 192.829 157.775 187.408C157.775 187.408 163.474 184.807 168.043 181.02L174.968 174.573C174.968 174.573 183.255 171.431 183.111 180.951C189.593 180.186 194.971 185.7 193.666 191.749C193.666 191.749 190.857 198.674 180.787 196.877C170.722 195.073 170.907 203.181 178.363 203.658C173.433 205.036 170.118 213.793 186.599 213.832C186.599 213.832 190.238 233.722 168.106 231.711C165.483 231.106 165.886 228.688 166.19 226.776C169.806 225.57 170.215 221.948 168.505 220.232C166.666 218.402 162.638 217.481 159.552 220.735C157.645 222.754 156.955 226.681 157.547 230.615C153.927 229.634 151.997 228.118 151.997 225.263C156.225 223.457 153.209 215.907 146.27 218.625C143.456 219.725 141.386 223.091 142.643 228.586C144.332 235.978 154.452 239.192 162.544 240.116C167.385 244.38 174.736 248.901 191.924 246.311C191.924 246.311 184.302 283.243 133.689 281.631C133.689 281.631 114.019 274.636 120.001 259.388C121.188 256.354 125.283 251.047 129.409 251.159C129.409 251.159 136.302 253.427 136.302 247.607C136.302 247.607 135.757 243.364 131.351 242.92C126.94 242.478 116.374 243.385 111.541 256.666C109.373 262.639 109.83 272.387 115.739 279.131C96.6098 274.432 82.1998 261.009 87.9948 242.781C91.1242 232.95 105.202 223.457 116.374 230.098C116.077 234.627 118.187 238.254 123.32 238.254C127.64 238.254 129.963 234.326 129.055 229.498C128.243 225.174 122.09 219.195 111.541 218.625C100.373 218.02 79.5851 224.319 78.0332 247.607C76.6011 269.178 91.3402 284.723 127.968 289.538L128.443 289.932C128.443 289.932 150.734 304.484 182.244 296.719C182.244 296.719 245.726 284.602 232.153 217.717C232.153 217.717 247.682 174.024 214.12 148.645C214.12 148.645 213.35 142.414 218.181 147.489C221.057 151.306 232.672 153.287 232.672 145.174C232.672 145.174 243.697 155.025 247.67 145.007C247.67 145.007 251.803 156.768 260.263 148.885C260.263 148.885 258.178 157.926 262.239 163.146C266.299 168.363 273.841 166.818 273.841 166.818C273.841 166.818 262.239 197.936 276.155 199.095C276.155 199.095 241.37 268.674 261.515 277.476C268.506 280.531 276.676 279.038 280.832 270.833C284.269 264.034 273.261 277.37 266.884 271.574C259.289 264.676 268.628 247.801 277.894 230.406C290.663 206.456 299.357 188.84 301.086 177.062C301.086 177.062 308.686 182.051 311.008 164.075C312.862 149.698 310.66 139.694 309.198 129.515C309.198 129.515 319.054 135.892 314.223 113.353C314.223 113.353 310.672 97.0222 293.708 81.5104ZM170.958 9.04488C171.662 9.13744 172.33 9.32014 172.958 9.56129C173.082 9.77078 173.153 10.0046 173.153 10.2653C173.153 11.0594 172.512 11.7146 171.713 11.7146C170.922 11.7146 170.271 11.0594 170.271 10.2653C170.271 9.74642 170.552 9.30552 170.958 9.04488ZM168.315 9.17155C168.31 9.20809 168.291 9.24465 168.291 9.28119C168.064 11.2226 169.448 12.9789 171.387 13.2078C173.104 13.4076 174.678 12.3382 175.168 10.7281C176.149 11.3834 176.982 12.1141 177.635 12.689C173.889 12.7426 173.275 14.494 170.045 13.8899C168.406 13.583 166.666 11.8705 166.572 9.72694C167.251 9.42001 167.473 9.34206 168.315 9.17155ZM219.099 232.897C219.099 232.897 220.943 229.86 221.92 234.221C221.92 234.221 223.873 257.727 208.858 272.092C198.844 281.666 175.772 295.36 149.603 289.384C149.603 289.384 191.369 286.715 202.04 248.425L203.214 244.112C203.214 244.112 213.738 241.695 219.099 232.897Z" fill="#01A6E6"/>
</g>
<defs>
<clipPath id="clip0_440_7491">
<rect width="1351" height="306" fill="white"/>
</clipPath>
</defs>
</svg>