<svg width="38" height="24" viewBox="0 0 932 284" fill="none" xmlns="http://www.w3.org/2000/svg">
<g clip-path="url(#clip0_443_7490)">
<path d="M32.8944 166.85C30.4578 165.075 27.4121 163.892 23.148 163.892H6.0918V173.95H18.884C22.5389 174.542 21.9297 173.95 22.5389 175.725C21.9297 176.909 17.6657 180.458 17.6657 185.783V249.684V250.275V251.459H31.6761V249.684V187.559C31.6761 184.009 36.5493 181.642 36.5493 175.134C36.5493 170.992 35.331 168.625 32.8944 166.85ZM250.97 223.65L236.351 182.233H224.777L210.157 223.65L198.583 182.233H184.573L203.457 250.867H213.812L230.259 205.309L246.706 250.867H257.671L276.555 182.233H262.544L250.97 223.65ZM321.023 188.742C316.149 183.417 308.839 181.05 300.311 181.05C293.611 181.05 288.128 182.234 283.864 184.6H283.255H282.646V199.392L285.692 197.617C289.956 194.659 294.829 193.475 299.702 193.475C304.575 193.475 308.23 194.659 310.667 197.617C313.104 199.984 314.322 204.125 314.322 208.858V250.867H328.332V205.9C327.723 199.392 325.287 192.883 321.023 188.742ZM96.8552 187.559C94.4186 185.192 91.3728 184.008 87.7179 182.825C84.063 181.642 80.4081 181.05 76.7532 181.05C69.4434 181.05 63.3519 182.825 57.8696 186.967V182.233H44.4683V250.867H58.4787V206.492C58.4787 202.942 60.3062 199.984 63.9611 197.617C68.2251 194.659 72.4892 193.475 76.7532 193.475C81.6264 193.475 84.6722 194.658 87.7179 197.025C90.1545 199.392 91.3728 202.35 91.3728 206.492V250.867H105.383V205.309C105.383 201.759 104.774 198.209 103.556 195.25C101.728 192.292 99.9009 189.925 96.8552 187.559ZM176.654 182.233H162.643V234.892C157.77 237.85 152.288 239.625 146.196 239.625C140.105 239.625 135.232 238.442 132.186 236.667C129.14 234.3 127.313 231.933 127.313 228.383C127.313 226.608 127.922 225.425 128.531 224.242C129.14 223.059 130.358 221.875 131.577 220.692C132.795 219.509 134.623 218.917 136.45 218.325C138.277 217.734 140.105 217.734 141.932 217.734H151.07V204.717H140.714C132.186 204.717 129.14 202.35 129.14 199.392C129.14 196.434 130.968 194.659 138.277 194.659C138.887 194.659 140.105 194.659 141.932 195.25C143.76 195.25 146.196 195.842 148.633 196.434H149.851H151.07V184.009L149.851 183.417C146.196 182.233 141.932 181.642 138.277 181.642C135.232 181.642 132.186 182.233 129.14 182.825C126.704 183.417 124.267 184.6 121.83 186.375C119.394 188.15 118.175 189.925 116.957 191.7C115.739 194.067 115.13 196.433 115.13 198.8C115.13 202.35 116.348 205.308 118.785 207.675C120.003 209.45 121.83 210.634 123.658 211.225C121.83 212.409 120.003 214.184 118.175 215.959C115.13 219.509 113.911 223.65 113.911 227.792C113.911 234.3 116.957 240.217 122.44 244.359C128.531 249.092 136.45 251.459 146.806 251.459C159.598 251.459 169.344 247.908 176.654 240.217V182.233ZM386.811 159.158V169.809H442.853V157.975H386.811V159.158ZM566.51 234.892C561.637 237.85 556.155 239.625 550.063 239.625C543.972 239.625 539.098 238.442 536.053 236.667C533.007 234.3 531.179 231.933 531.179 228.383C531.179 226.608 531.789 225.425 532.398 224.242C533.007 223.059 534.225 221.875 535.443 220.692C536.662 219.509 538.489 218.917 540.317 218.325C542.144 217.734 543.972 217.734 545.799 217.734H554.936V204.717H544.581C536.053 204.717 533.616 202.35 533.007 199.392C533.007 196.434 534.834 194.659 542.144 194.659C542.753 194.659 543.972 194.659 545.799 195.25C547.626 195.25 549.454 195.842 552.5 196.434H553.718H554.936V184.009L553.718 183.417C550.063 182.233 545.799 181.642 542.144 181.642C539.098 181.642 536.053 182.233 533.007 182.825C529.961 183.417 527.524 184.6 525.697 186.375C523.26 188.15 522.042 189.925 520.824 191.7C519.606 194.067 518.996 196.433 518.996 198.8C518.996 201.758 520.215 205.308 522.651 207.675C523.87 209.45 525.697 210.634 527.524 211.225C525.697 212.409 523.87 214.184 522.042 215.959C518.996 219.509 517.778 223.65 517.778 227.792C517.778 234.3 520.824 240.217 526.306 244.95C532.398 249.684 540.317 252.05 550.672 252.05C563.464 252.05 573.211 248.5 580.521 240.809V240.217V182.825H566.51V234.892ZM571.383 153.833C567.119 153.833 564.074 154.425 562.246 156.792C560.419 159.158 559.809 161.525 559.809 165.075V168.625V169.809H573.82V166.259C573.82 164.483 573.82 164.484 577.475 163.892H584.175V162.117V155.608V155.017V153.833H571.383ZM428.842 226.609C428.842 230.159 427.624 233.117 423.969 235.484C420.314 238.442 416.659 239.625 412.395 239.625C408.131 239.625 405.085 238.442 402.649 236.667C400.212 234.892 398.994 231.933 398.994 228.383V205.309C398.994 197.617 395.948 191.7 389.856 187.559C384.374 183.417 377.064 181.642 368.536 181.642C355.744 181.642 345.389 186.967 338.688 196.434V250.867H362.445V238.442H352.089V199.983C355.744 195.842 361.226 193.475 368.536 193.475C373.409 193.475 377.673 194.658 380.719 197.025C383.765 199.392 384.983 201.759 384.983 206.492V228.383C384.983 235.483 387.42 241.4 392.293 245.542C397.166 250.275 403.867 252.05 411.177 252.05C417.877 252.05 423.36 250.275 428.842 246.133V250.867H442.853V182.233H428.842V226.609ZM495.849 198.209L508.032 187.559L496.458 181.05L470.264 202.942L473.919 203.534C490.975 206.492 498.285 213 498.285 223.65C498.285 228.384 496.458 231.934 492.803 234.892C489.148 237.85 484.275 239.625 477.574 239.625C476.965 239.625 476.356 239.625 475.747 239.625C474.528 239.625 472.701 239.625 471.483 239.034C470.264 239.034 468.437 238.442 467.219 237.85V181.642H453.208V247.317L454.426 247.909C461.127 250.275 469.046 252.05 476.356 252.05H476.965C487.321 252.05 495.849 249.092 502.549 243.767C508.641 239.034 511.687 231.934 511.687 223.65C512.296 211.817 506.204 203.534 495.849 198.209Z" fill="#462279"/>
<path d="M932 0H636.562V284H932V0Z" fill="#462279"/>
<path d="M898.497 224.242L867.43 105.908L784.586 32.5415L701.741 105.317L670.675 223.65L729.762 250.867H776.667V210.042C776.667 210.042 690.168 254.417 712.706 155.017C720.016 121.883 760.22 78.0998 782.758 65.6748C783.368 65.0832 783.977 65.0832 784.586 64.4915C807.125 75.1415 849.156 120.7 857.075 155.017C879.613 254.417 793.114 210.042 793.114 210.042V250.867H840.019L898.497 224.242Z" fill="#FEAC00"/>
<path d="M399.603 61.5333L402.039 46.7416C402.039 46.7416 389.856 42.0083 374.019 42.0083C357.571 42.0083 337.47 46.7416 337.47 68.6333C337.47 88.1583 360.617 91.7083 366.1 92.8916C371.582 94.075 388.029 97.0333 388.029 105.908C388.029 114.783 375.846 117.15 368.536 117.15C351.48 116.558 339.297 109.458 339.297 109.458L336.86 124.842C336.86 124.842 349.043 131.942 367.927 131.942C386.811 131.942 405.085 124.25 405.085 105.908C405.085 89.3416 394.73 82.8333 377.673 79.2833C358.181 75.1416 354.526 72.1833 354.526 66.8583C354.526 61.5333 360.008 56.8 374.019 56.8C386.811 57.3916 399.603 61.5333 399.603 61.5333Z" fill="#462279"/>
<path d="M487.929 60.9416L490.366 46.15C490.366 46.15 479.401 42.0083 465.391 42.0083C450.771 42.0083 418.486 44.9666 418.486 87.5666C418.486 130.167 451.38 132.533 464.782 132.533C477.574 132.533 490.975 127.208 490.975 127.208L488.539 113.008C488.539 113.008 479.401 117.15 466 117.15C453.817 117.15 437.37 114.783 437.37 86.975C437.37 58.575 453.208 57.3916 466 57.3916C476.356 57.3916 487.929 60.9416 487.929 60.9416Z" fill="#462279"/>
<path d="M567.12 85.1999V84.6082C567.12 84.6082 580.521 82.8332 580.521 65.6749C580.521 47.9249 563.465 43.7832 548.236 43.7832C533.007 43.7832 507.423 43.7832 507.423 43.7832V131.35C507.423 131.35 529.961 131.35 550.063 131.35C570.165 131.35 584.785 124.842 584.785 106.5C584.785 88.7499 569.556 85.7915 567.12 85.1999ZM525.088 57.9832C525.088 57.9832 540.926 57.9832 548.845 57.9832C556.764 57.9832 562.856 60.3499 562.856 68.6332C562.856 76.3249 558.591 79.8749 548.845 79.8749C539.099 79.8749 525.088 79.8749 525.088 79.8749V57.9832ZM550.673 116.558C542.144 116.558 525.088 116.558 525.088 116.558V92.8915C525.088 92.8915 544.581 92.8915 551.282 92.8915C557.982 92.8915 566.51 94.0749 566.51 104.133C566.51 114.783 559.201 116.558 550.673 116.558Z" fill="#462279"/>
</g>
<defs>
<clipPath id="clip0_443_7490">
<rect width="932" height="284" fill="white"/>
</clipPath>
</defs>
</svg>