<svg width="38" height="24" viewBox="0 0 64 48" fill="none" xmlns="http://www.w3.org/2000/svg">
<path d="M42.938 26.1041H44.3655V25.1555H42.9196C42.6249 25.1555 42.3946 25.4226 42.4499 25.7265C42.4959 25.9475 42.7077 26.1041 42.938 26.1041Z" fill="#00C43E"/>
<path d="M15.0332 31.0036C15.0424 31.0036 15.0608 31.0036 15.07 31.0036H49.3478C53.1237 31.0036 56.1997 27.9276 56.1997 24.1517C56.1997 20.3758 53.1237 17.2998 49.3478 17.2998H15.07C15.0608 17.2998 15.0424 17.2998 15.0332 17.2998C11.2665 17.309 8.19973 20.385 8.19973 24.1517C8.19052 27.9184 11.2665 30.9943 15.0332 31.0036ZM46.2258 22.1164H47.2204C47.3309 22.1164 47.423 22.1808 47.4691 22.2822L48.4269 24.6766L49.4307 22.2729C49.4768 22.1716 49.5689 22.1072 49.6794 22.1072H50.7477C50.8674 22.1072 50.9503 22.2269 50.9042 22.3466C50.9042 22.3466 48.7032 27.5868 48.3256 28.4894C48.2887 28.5722 48.2151 28.6183 48.123 28.6183H47.027C46.9073 28.6183 46.8244 28.4986 46.8705 28.3788L47.6625 26.4909L46.0232 22.4019C45.9587 22.2729 46.0692 22.1164 46.2258 22.1164ZM41.2527 25.5147C41.3079 24.6306 42.0907 23.9583 42.9841 23.9583H44.3563C44.3194 23.6083 44.1721 23.4978 44.1168 23.461C43.8958 23.286 43.3801 23.1478 42.192 23.4149C42.0539 23.4425 41.9065 23.3597 41.8697 23.2215L41.7039 22.5769C41.6671 22.4295 41.7592 22.2822 41.8973 22.2545C42.8275 22.0427 44.0432 21.8954 44.8444 22.5124C45.1667 22.761 45.5535 23.2584 45.5535 24.1609V27.0343C45.5535 27.1816 45.4338 27.3013 45.2864 27.3013H42.9104C41.9618 27.3013 41.1882 26.4817 41.2527 25.5147ZM36.1414 21.0112C36.1414 20.8823 36.2427 20.7902 36.3624 20.7902H38.4714C39.8252 20.7902 40.9303 21.8861 40.9303 23.2492C40.9303 24.6122 39.8344 25.7081 38.4714 25.7081H37.5597V27.0803C37.5597 27.2 37.4583 27.3013 37.3386 27.3013H36.3624C36.2427 27.3013 36.1414 27.2 36.1414 27.0803V21.0112ZM29.3263 21.0112C29.3263 20.956 29.3448 20.9007 29.3908 20.8455C29.4369 20.8086 29.4921 20.781 29.5474 20.781H33.4522C33.5719 20.781 33.6732 20.8823 33.6732 21.002V21.9782C33.6732 22.098 33.5719 22.1993 33.4522 22.1993H30.7538V23.3136H33.4522C33.5719 23.3136 33.6732 23.4149 33.6732 23.5346V24.5109C33.6732 24.6306 33.5719 24.7319 33.4522 24.7319H30.7538V25.8462H33.4522C33.5719 25.8462 33.6732 25.9475 33.6732 26.0673V27.0435C33.6732 27.1632 33.5719 27.2645 33.4522 27.2645H29.5474C29.4921 27.2645 29.4369 27.2461 29.3908 27.2L29.3816 27.1908C29.3448 27.1448 29.3171 27.0895 29.3171 27.0343V21.0112H29.3263ZM22.5666 21.0112C22.5666 20.8915 22.6679 20.7902 22.7876 20.7902H23.7362H23.7454L23.7914 20.7994L23.8559 20.827C23.8559 20.827 23.8651 20.8363 23.8743 20.8363C23.8743 20.8363 23.8835 20.8455 23.8927 20.8547C23.9019 20.8547 23.9019 20.8639 23.9112 20.8731C23.9204 20.8823 23.9204 20.8915 23.9296 20.9007L26.8306 24.8056V21.0297C26.8306 20.9099 26.9319 20.8086 27.0516 20.8086H28.0278C28.1475 20.8086 28.2488 20.9099 28.2488 21.0297V27.0987C28.2488 27.2184 28.1475 27.3198 28.0278 27.3198H27.0884C27.07 27.3198 27.0516 27.3198 27.024 27.3105C27.0148 27.3105 27.0148 27.3105 27.0056 27.3013L26.9595 27.2737C26.9411 27.2553 26.9135 27.2369 26.9042 27.2184L23.994 23.2584V27.0711C23.994 27.1908 23.8927 27.2921 23.773 27.2921H22.7968C22.6771 27.2921 22.5758 27.1908 22.5758 27.0711V21.0112H22.5666ZM20.0708 21.0112C20.0708 20.8915 20.1721 20.7902 20.2918 20.7902H21.268C21.3877 20.7902 21.4891 20.8915 21.4891 21.0112V27.0803C21.4891 27.2 21.3877 27.3013 21.268 27.3013H20.2918C20.1721 27.3013 20.0708 27.2 20.0708 27.0803V21.0112ZM14.7937 21.0112C14.7937 20.8915 14.895 20.7902 15.0148 20.7902H15.991C16.1107 20.7902 16.212 20.8915 16.212 21.0112V25.8739H18.9104C19.0301 25.8739 19.1314 25.9752 19.1314 26.0949V27.0711C19.1314 27.1908 19.0301 27.2921 18.9104 27.2921H15.0148C14.9595 27.2921 14.9043 27.2737 14.849 27.2184C14.8122 27.1724 14.7845 27.1171 14.7845 27.0619V21.0112H14.7937Z" fill="#00C43E"/>
<path d="M39.5028 23.24C39.5028 22.669 39.0424 22.2085 38.4714 22.2085H37.5688V24.2714H38.4806C39.0424 24.2714 39.5028 23.811 39.5028 23.24Z" fill="#00C43E"/>
<path d="M20.2918 27.3014H21.268C21.3878 27.3014 21.4891 27.2001 21.4891 27.0804V21.0113C21.4891 20.8916 21.3878 20.7903 21.268 20.7903H20.2918C20.1721 20.7903 20.0708 20.8916 20.0708 21.0113V27.0804C20.0708 27.2001 20.1721 27.3014 20.2918 27.3014Z" fill="white"/>
<path d="M22.7968 27.3014H23.773C23.8928 27.3014 23.9941 27.2001 23.9941 27.0804V23.2584L26.8951 27.2001C26.9135 27.2185 26.9319 27.2369 26.9503 27.2553L26.9964 27.283C27.0056 27.283 27.0148 27.2922 27.0148 27.2922C27.0424 27.3014 27.0608 27.3014 27.0792 27.3014H28.0186C28.1383 27.3014 28.2396 27.2001 28.2396 27.0804V21.0113C28.2396 20.8916 28.1383 20.7903 28.0186 20.7903H27.0424C26.9227 20.7903 26.8214 20.8916 26.8214 21.0113V24.7872L23.9204 20.8824C23.9112 20.8732 23.9112 20.8639 23.902 20.8547C23.8928 20.8455 23.8928 20.8455 23.8835 20.8363C23.8743 20.8271 23.8743 20.8271 23.8651 20.8179C23.8559 20.8087 23.8559 20.8087 23.8467 20.8087L23.7822 20.7811L23.7362 20.7719H23.727H22.7784C22.6587 20.7719 22.5574 20.8732 22.5574 20.9929V27.0619C22.5666 27.2001 22.6679 27.3014 22.7968 27.3014Z" fill="white"/>
<path d="M15.0147 27.3014H18.9196C19.0393 27.3014 19.1406 27.2001 19.1406 27.0804V26.1042C19.1406 25.9844 19.0393 25.8831 18.9196 25.8831H16.2212V21.0113C16.2212 20.8916 16.1199 20.7903 16.0001 20.7903H15.0147C14.895 20.7903 14.7937 20.8916 14.7937 21.0113V27.0712C14.7937 27.1264 14.8121 27.1817 14.8582 27.2277C14.9042 27.2738 14.9595 27.3014 15.0147 27.3014Z" fill="white"/>
<path d="M29.3908 27.2369C29.4276 27.2738 29.4829 27.3014 29.5473 27.3014H33.4522C33.5719 27.3014 33.6732 27.2001 33.6732 27.0804V26.1042C33.6732 25.9844 33.5719 25.8831 33.4522 25.8831H30.7538V24.7688H33.4522C33.5719 24.7688 33.6732 24.6675 33.6732 24.5478V23.5531C33.6732 23.4334 33.5719 23.3321 33.4522 23.3321H30.7538V22.2085H33.4522C33.5719 22.2085 33.6732 22.1072 33.6732 21.9875V21.0113C33.6732 20.8916 33.5719 20.7903 33.4522 20.7903H29.5473C29.4921 20.7903 29.4368 20.8087 29.3908 20.8548C29.3447 20.9008 29.3263 20.9561 29.3263 21.0205V27.0804C29.3263 27.1356 29.3447 27.1909 29.3908 27.2369Z" fill="white"/>
<path d="M42.9197 27.3014H45.2957C45.4431 27.3014 45.5628 27.1816 45.5628 27.0343V24.1517C45.5628 23.2492 45.176 22.7611 44.8537 22.5032C44.0524 21.877 42.8368 22.0243 41.9066 22.2453C41.7593 22.2822 41.6764 22.4295 41.7132 22.5677L41.879 23.2123C41.9158 23.3505 42.054 23.4334 42.2013 23.4057C43.3893 23.1387 43.9051 23.2768 44.1261 23.4518C44.1814 23.4886 44.3195 23.6084 44.3655 23.9491H42.9933C42.1 23.9491 41.3264 24.6214 41.2619 25.5055C41.1883 26.4817 41.9619 27.3014 42.9197 27.3014ZM42.9197 25.1556H44.3655V26.1041H42.9381C42.7078 26.1041 42.496 25.9476 42.45 25.7265C42.3947 25.4226 42.6249 25.1556 42.9197 25.1556Z" fill="white"/>
<path d="M47.6625 26.5093L46.8704 28.3973C46.8244 28.5078 46.9073 28.6367 47.027 28.6367H48.1229C48.215 28.6367 48.2887 28.5815 48.3256 28.5078C48.7031 27.5961 50.9042 22.3651 50.9042 22.3651C50.9503 22.2545 50.8674 22.1256 50.7477 22.1256H49.6793C49.5688 22.1256 49.4767 22.1901 49.4307 22.2914L48.4269 24.6859L47.4691 22.2914C47.4322 22.1901 47.3309 22.1256 47.2204 22.1256H46.2258C46.0692 22.1256 45.9679 22.2822 46.0232 22.4295L47.6625 26.5093Z" fill="white"/>
<path d="M36.3624 27.3014H37.3386C37.4583 27.3014 37.5596 27.2001 37.5596 27.0804V25.7082H38.4714C39.8252 25.7082 40.9303 24.6122 40.9303 23.2492C40.9303 21.8862 39.8344 20.7903 38.4714 20.7903H36.3624C36.2427 20.7903 36.1414 20.8916 36.1414 21.0113V27.0712C36.1414 27.2001 36.2427 27.3014 36.3624 27.3014ZM37.5688 22.2085H38.4714C39.0424 22.2085 39.5028 22.669 39.5028 23.24C39.5028 23.811 39.0424 24.2715 38.4714 24.2715H37.5596V22.2085H37.5688Z" fill="white"/>
</svg>