<svg width="38" height="24" viewBox="0 0 64 48" fill="none" xmlns="http://www.w3.org/2000/svg">
<path d="M48.1168 30.8686C48.1168 30.8686 48.2777 29.6983 49.3135 29.6983C50.3225 29.6983 50.4951 30.8686 50.4951 30.8686H48.1168ZM51.6654 31.0244C51.5247 29.7853 50.7912 28.4999 49.2003 28.4999C49.2003 28.4999 47.059 28.4993 46.8879 31.4023C46.8844 31.46 46.8876 31.5183 46.8902 31.5757C46.8963 31.7263 46.9117 31.8762 46.9343 32.025C46.9659 32.2327 47.0123 32.438 47.0761 32.6381C47.1498 32.8693 47.2467 33.0941 47.3717 33.3023C47.5071 33.5283 47.6762 33.7348 47.8769 33.9056C48.1028 34.0982 48.3665 34.2423 48.6478 34.3357C48.8236 34.394 49.0089 34.4381 49.1931 34.4561C49.4457 34.481 49.7007 34.4462 49.9463 34.3853C50.3411 34.2879 50.7068 34.0973 51.0122 33.8279C51.1392 33.7159 51.2628 33.5903 51.3565 33.4482C51.3565 33.4482 51.5546 33.1486 51.4444 32.8493C51.3748 32.6599 51.2329 32.4864 51.0192 32.4676C50.7753 32.4458 50.6363 32.6335 50.4846 32.7895C50.4846 32.7895 50.109 33.2582 49.3723 33.2582C48.9141 33.2582 48.5724 33.0453 48.3517 32.6956C48.2061 32.465 48.1182 32.1639 48.102 31.8924H50.1021C50.3474 31.8924 50.5925 31.8913 50.8376 31.8924C50.9197 31.8927 51.0021 31.8913 51.0841 31.8959C51.1656 31.9003 51.2503 31.9009 51.3295 31.8788C51.4281 31.851 51.5354 31.7703 51.59 31.6851C51.7156 31.4896 51.6906 31.2471 51.6654 31.0244Z" fill="#F3801F"/>
<mask id="mask0_1229_150" style="mask-type:luminance" maskUnits="userSpaceOnUse" x="51" y="28" width="5" height="9">
<path d="M51.2875 28.577H56V36.7445H51.2875V28.577Z" fill="white"/>
</mask>
<g mask="url(#mask0_1229_150)">
<path d="M51.6541 29.6914C51.6721 29.7445 51.6912 29.7975 51.7107 29.8503C51.7107 29.9147 51.7696 30.0113 51.7916 30.0725L51.8772 30.306C51.9343 30.462 51.9911 30.6178 52.0483 30.7735C52.1594 31.0775 52.2716 31.3811 52.3853 31.6842C52.5135 32.0253 52.6431 32.3661 52.7742 32.706C52.8412 32.8795 52.9082 33.0523 52.9761 33.2255C53.0092 33.3102 53.0425 33.3949 53.0759 33.4799C53.0927 33.5222 53.1095 33.5648 53.1263 33.6072C53.1345 33.6284 53.1844 33.7154 53.1765 33.7348C53.0773 33.9854 52.9697 34.2345 52.8293 34.4651C52.6545 34.7525 52.4129 35.0052 52.1536 35.2183C52.0976 35.2645 51.9085 35.4103 51.8467 35.4489C51.715 35.5307 51.5784 35.5864 51.4743 35.7056C51.3716 35.8231 51.3151 35.9701 51.3151 36.1264C51.3151 36.2543 51.3449 36.3825 51.4145 36.4907C51.4723 36.5803 51.5503 36.6555 51.6443 36.7062C51.7417 36.7587 51.8676 36.7425 51.9697 36.7094C52.0674 36.6781 52.1573 36.6262 52.2446 36.5725C52.6272 36.3358 52.9831 36.0505 53.2838 35.7152C53.3137 35.6821 53.3421 35.6482 53.37 35.6137C53.4025 35.5736 53.4344 35.533 53.4637 35.4907C53.4637 35.4907 53.9469 34.8613 54.2328 34.1237C54.5191 33.3865 54.8686 32.4264 54.8686 32.4264C55.1117 31.7814 55.3524 31.1355 55.5983 30.4916C55.6859 30.2622 55.7738 30.0328 55.8614 29.8031C55.9542 29.5606 56.0479 29.2958 55.9728 29.0475C55.871 28.7119 55.4084 28.4828 55.1369 28.7725C55.0354 28.881 54.9806 29.024 54.9283 29.1629C54.6917 29.7923 54.4553 30.422 54.2207 31.052C54.1197 31.322 54.0191 31.592 53.9187 31.862C53.8981 31.9168 53.7679 32.1506 53.7897 32.208C53.6664 31.8838 53.5428 31.5592 53.4196 31.235C53.1916 30.636 52.9625 30.0374 52.7377 29.4373C52.6832 29.2914 52.6278 29.1458 52.5695 29.0014C52.5181 28.8744 52.4265 28.7604 52.3055 28.6934C52.1254 28.5933 51.8812 28.64 51.7371 28.7833C51.6034 28.9161 51.5558 29.1168 51.5683 29.3051C51.5767 29.437 51.6118 29.5652 51.6541 29.6914Z" fill="#F3801F"/>
</g>
<path d="M29.1056 29.1654C29.0975 29.2406 29.0981 29.3171 29.0987 29.3923C29.1007 29.6098 29.1007 29.827 29.1007 30.0445V32.8889C29.1007 33.047 29.101 33.2051 29.1013 33.3631C29.1013 33.5085 29.092 33.6572 29.1097 33.8017C29.1286 33.9577 29.1813 34.1109 29.2872 34.2298C29.3777 34.3316 29.5018 34.3913 29.6373 34.4032C29.6564 34.4047 29.675 34.4055 29.6941 34.4055C29.8716 34.4055 30.0259 34.3203 30.1272 34.1758C30.213 34.0534 30.258 33.909 30.2774 33.7622C30.2983 33.6071 30.2925 33.4507 30.291 33.2947C30.2899 33.1651 30.2902 33.0351 30.2905 32.9055C30.2907 32.7776 30.2905 32.6497 30.2905 32.522V30.9904C30.2905 30.8326 30.2861 30.6786 30.3218 30.5237C30.3688 30.3183 30.4622 30.1098 30.6211 29.9668C30.769 29.834 30.961 29.7705 31.1577 29.762C31.1748 29.7612 31.1916 29.7609 31.2087 29.7609C31.4062 29.7609 31.6011 29.8177 31.7517 29.9491C31.8825 30.0634 31.966 30.2183 32.0231 30.3804C32.1035 30.609 32.1029 30.8555 32.1023 31.0948C32.1023 31.571 32.1012 32.0473 32.1012 32.5235V33.7599C32.1012 33.7599 32.1531 34.4055 32.6859 34.4055C33.219 34.4055 33.2657 33.8118 33.2657 33.8118V30.9616C33.2657 30.9616 33.2784 29.7597 34.2701 29.7597C35.19 29.7568 35.1074 30.9358 35.1074 30.9358V33.8272C35.1074 33.8272 35.1831 34.4055 35.6904 34.4055C36.1976 34.4055 36.2678 33.8385 36.2678 33.8385V30.6731C36.2678 30.6731 36.2014 28.5004 34.5386 28.5004C33.33 28.5004 32.9185 29.4662 32.9069 29.4639C32.9028 29.463 32.8973 29.4476 32.8956 29.4447C32.8866 29.4273 32.8773 29.4097 32.8677 29.3925C32.8529 29.3659 32.8378 29.3395 32.8219 29.3137C32.8013 29.2803 32.7798 29.2472 32.7575 29.215C32.7308 29.1768 32.703 29.1396 32.6734 29.1031C32.6406 29.0622 32.6058 29.0227 32.5696 28.9845C32.5298 28.943 32.4878 28.9032 32.4443 28.8658C32.3976 28.8258 32.3483 28.7884 32.2972 28.7539C32.2427 28.7173 32.1861 28.684 32.1273 28.655C31.9518 28.5677 31.7583 28.5169 31.5628 28.5059C31.5127 28.503 31.4616 28.5001 31.4114 28.5004C31.2867 28.5015 31.1655 28.5253 31.0492 28.57C30.9819 28.5958 30.9172 28.6283 30.8554 28.6651C30.7942 28.7014 30.7362 28.7423 30.6811 28.7869C30.6167 28.8389 30.5561 28.8957 30.4996 28.956C30.4334 29.0265 30.3722 29.1019 30.3157 29.1802C30.3084 29.1907 30.3012 29.2008 30.2939 29.2113C30.2939 29.2113 30.2243 28.5416 29.7069 28.5416C29.4981 28.5416 29.3264 28.6564 29.2214 28.8328C29.1831 28.8977 29.1492 28.9705 29.1286 29.0433C29.1173 29.0834 29.11 29.1243 29.1056 29.1654Z" fill="#F3801F"/>
<path d="M39.1192 33.2101C38.3936 33.2101 37.8054 32.4343 37.8054 31.4771C37.8054 30.5203 38.3936 29.7444 39.1192 29.7444C39.8449 29.7444 40.4331 30.5203 40.4331 31.4771C40.4331 32.4343 39.8449 33.2101 39.1192 33.2101ZM39.1192 28.4921C37.7601 28.4921 36.6586 29.8268 36.6586 31.4731C36.6586 33.1193 37.7601 34.4541 39.1192 34.4541C40.4781 34.4541 41.5799 33.1193 41.5799 31.4731C41.5799 29.8268 40.4781 28.4921 39.1192 28.4921Z" fill="#F3801F"/>
<path d="M43.134 29.225C43.134 29.104 43.1053 28.9839 43.0461 28.8784C42.9608 28.7261 42.8016 28.5515 42.5203 28.5515C42.3491 28.5518 42.203 28.6397 42.1058 28.7777C42.0666 28.8334 42.0353 28.8946 42.0107 28.9581C41.9738 29.0518 41.9605 29.1423 41.9608 29.2432V29.2543C41.9608 29.4732 41.9616 29.6922 41.9616 29.9115V33.557C41.9616 33.684 41.95 33.8093 41.9857 33.934C42.0614 34.1985 42.2775 34.4088 42.5614 34.4088C43.0609 34.4088 43.1229 33.8499 43.1229 33.8499V31.1575C43.1229 31.0122 43.1424 30.8677 43.1812 30.7282C43.2854 30.3555 43.5392 29.7465 44.2599 29.7465C44.4974 29.7465 44.7271 29.8233 44.9035 29.9854C45.0494 30.1197 45.15 30.2969 45.2179 30.4817C45.3467 30.8321 45.3339 31.1987 45.3307 31.5653C45.3298 31.6738 45.3287 31.7819 45.3287 31.8904V33.4047C45.3287 33.5906 45.2997 33.7812 45.3632 33.9607C45.4502 34.2075 45.6669 34.4088 45.9383 34.4088C46.1341 34.4088 46.2962 34.3044 46.392 34.1362C46.4909 33.9619 46.4987 33.7826 46.499 33.5854C46.4999 33.1802 46.4972 32.775 46.4972 32.3698V31.2135C46.4972 30.7622 46.4491 30.3213 46.2986 29.8921C46.1924 29.5901 46.0448 29.2978 45.8342 29.055C45.6028 28.7882 45.2962 28.5991 44.9476 28.5312C44.8371 28.5097 44.7242 28.4999 44.6117 28.4999C43.6961 28.4999 43.2285 29.1223 43.1517 29.2305C43.1482 29.2351 43.134 29.2311 43.134 29.225Z" fill="#F3801F"/>
<path d="M33.3538 41.999C33.3463 41.9468 33.3521 41.8874 33.3521 41.836V36.0895C33.3521 35.9903 33.3939 35.8903 33.4629 35.8189C33.5334 35.7458 33.6311 35.7122 33.7312 35.7087C33.7376 35.7084 33.7439 35.7081 33.7506 35.7081C33.8527 35.7081 33.9528 35.7403 34.027 35.8128C34.1135 35.8975 34.1561 36.0127 34.1558 36.1325C34.1555 36.2424 34.1555 36.3523 34.1555 36.4622V41.7476C34.1555 41.8363 34.166 41.9326 34.1448 42.0185C34.0995 42.2041 33.9441 42.3256 33.7538 42.3256C33.5743 42.3256 33.4107 42.2073 33.3608 42.0324C33.3576 42.0217 33.3553 42.0106 33.3538 41.999Z" fill="#808083"/>
<path d="M35.1115 41.999C35.104 41.9468 35.1098 41.8874 35.1098 41.836V36.0895C35.1098 35.9903 35.1516 35.8903 35.2206 35.8189C35.2911 35.7458 35.3885 35.7122 35.4889 35.7087C35.4953 35.7084 35.5016 35.7081 35.5083 35.7081C35.6104 35.7081 35.7108 35.7403 35.7844 35.8128C35.8711 35.8975 35.9138 36.0127 35.9135 36.1325C35.9132 36.2424 35.9132 36.3523 35.9132 36.4622V41.7476C35.9132 41.8363 35.9236 41.9326 35.9028 42.0185C35.8572 42.2041 35.7018 42.3256 35.5115 42.3256C35.332 42.3256 35.1684 42.2073 35.1185 42.0324C35.1153 42.0217 35.113 42.0106 35.1115 41.999Z" fill="#808083"/>
<path d="M26.8968 40.9152C26.8872 40.8752 26.8776 40.8355 26.8683 40.7957C26.8492 40.716 26.8304 40.6365 26.8115 40.5567C26.7738 40.3975 26.7367 40.2383 26.6995 40.0788C26.6151 39.7148 26.5281 39.3435 26.4429 38.9766C26.3573 38.6103 26.2828 38.2393 26.183 37.8768C26.1769 37.8548 26.1708 37.833 26.1641 37.8112C26.1363 37.7184 26.0977 37.6282 26.0235 37.5627C25.9135 37.4649 25.732 37.4504 25.5864 37.471C25.4814 37.4858 25.3738 37.52 25.3013 37.5972C25.2259 37.6775 25.1992 37.7904 25.1754 37.8977C24.9445 38.9412 24.7134 39.9845 24.4822 41.028C24.2334 40.0277 23.9842 39.0271 23.7354 38.0267C23.6849 37.8249 23.6176 37.6001 23.434 37.5026C23.2693 37.4148 23.0457 37.4835 22.9441 37.6361C22.8006 37.8516 22.8679 38.1198 22.9337 38.3501C23.271 39.5291 23.608 40.7081 23.9451 41.8871C23.9828 42.0185 24.026 42.1592 24.1339 42.2436C24.222 42.3123 24.3392 42.3312 24.4509 42.3364C24.584 42.3425 24.729 42.3271 24.8268 42.2366C24.9141 42.1554 24.9448 42.0319 24.9712 41.9156L25.6505 38.9322C25.6525 38.9235 25.6641 38.9241 25.6664 38.9328C25.8892 39.8084 26.0931 40.6884 26.301 41.5675C26.3297 41.6899 26.3585 41.812 26.3869 41.9341C26.4095 42.0304 26.4345 42.1313 26.4997 42.2059C26.5876 42.3057 26.7297 42.337 26.8625 42.3402C26.9678 42.3425 27.0769 42.3294 27.1668 42.2749C27.306 42.1914 27.3739 42.0272 27.4107 41.8689C27.5174 41.4077 27.657 40.9538 27.7857 40.4973C27.9888 39.7754 28.2193 39.0604 28.4053 38.3342C28.4227 38.2666 28.4395 38.1987 28.4557 38.1309C28.4734 38.0557 28.4905 37.9783 28.4946 37.9017C28.5001 37.7933 28.4792 37.6865 28.3974 37.5917C28.3203 37.5026 28.204 37.4557 28.0862 37.4635C27.7654 37.485 27.6921 37.851 27.6361 38.101C27.4162 39.0799 27.1665 40.0706 26.9246 41.0298" fill="#808083"/>
<path d="M31.6 40.6881C31.5719 40.9083 31.4611 41.1101 31.3007 41.2618C31.2242 41.3343 31.1366 41.3952 31.0414 41.4408C30.7624 41.5736 30.4176 41.6035 30.1182 41.5284C29.832 41.4567 29.6858 41.2261 29.6977 40.9361C29.7075 40.6945 29.8323 40.4912 30.035 40.3656C30.2253 40.2476 30.4448 40.1939 30.6629 40.155C30.9475 40.1046 31.2439 40.0701 31.5142 39.9633C31.5365 39.9543 31.5676 39.9416 31.6038 39.9242C31.6038 40.0558 31.6038 40.1878 31.6041 40.3198C31.6047 40.4416 31.6154 40.5669 31.6 40.6881ZM32.6749 41.5829C32.6024 41.5504 32.5093 41.56 32.4562 41.5005C32.4075 41.446 32.4058 41.3532 32.4061 41.2798C32.411 40.5785 32.4156 39.8775 32.4206 39.1762C32.4223 38.9067 32.4237 38.6341 32.3626 38.3719C32.3008 38.1094 32.1694 37.8539 31.9516 37.6952C31.7793 37.5697 31.5667 37.5131 31.357 37.4751C30.928 37.3974 30.477 37.3884 30.0637 37.5279C29.754 37.6326 29.4677 37.8281 29.2789 38.0972C29.1547 38.2744 29.0399 38.5274 29.0642 38.7556C29.0732 38.8409 29.1017 38.923 29.1568 38.9963C29.2858 39.1686 29.5663 39.2214 29.7241 39.0752C29.8668 38.943 29.8674 38.7191 29.9613 38.5491C30.0927 38.3119 30.3862 38.2147 30.6568 38.2002C30.9237 38.1857 31.2082 38.2391 31.4066 38.4177C31.6056 38.5964 31.6833 38.923 31.5267 39.1396C31.4222 39.2844 31.2424 39.3525 31.0696 39.3978C30.7175 39.4906 30.3511 39.5219 29.9987 39.615C29.6466 39.7081 29.2954 39.8757 29.0851 40.173C28.883 40.4581 28.8363 40.8288 28.8714 41.1766C28.8978 41.4393 28.9711 41.705 29.1344 41.9124C29.3407 42.1743 29.6701 42.3158 30.0005 42.3587C30.6081 42.4379 31.2482 42.1975 31.6531 41.7378C31.6598 41.9243 31.7485 42.1064 31.8912 42.2265C32.0342 42.3463 32.2283 42.4005 32.413 42.375C32.5972 42.3495 32.7909 42.2421 32.8437 42.0635C32.8942 41.8921 32.8446 41.6589 32.6749 41.5829Z" fill="#808083"/>
<path d="M41.2925 37.5288C41.2922 37.5004 41.2922 37.4716 41.2922 37.4435C41.2922 37.3724 41.2919 37.3017 41.2919 37.2312C41.2916 37.1401 41.2913 37.0488 41.2911 36.9577C41.2911 36.8681 41.2908 36.7785 41.2908 36.6888C41.2905 36.6227 41.2905 36.5566 41.2902 36.4904C41.2902 36.4443 41.2913 36.4017 41.3056 36.3579C41.3151 36.3277 41.3279 36.2984 41.3441 36.2712C41.3891 36.1955 41.4593 36.1395 41.5428 36.1119C41.5927 36.0954 41.6458 36.0887 41.6983 36.0887C41.7966 36.0887 41.8938 36.1186 41.9642 36.1894C42.0829 36.3089 42.089 36.4817 42.0855 36.6395C42.0829 36.7529 42.0843 36.8666 42.0843 36.98V37.5311H42.5028C42.5565 37.5311 42.6087 37.5267 42.6597 37.5465C42.8094 37.6036 42.9034 37.7362 42.9135 37.8951C42.9144 37.9067 42.9147 37.9186 42.9147 37.9302C42.9147 38.0688 42.8567 38.1985 42.7386 38.2745C42.7192 38.2872 42.6989 38.2968 42.6783 38.3067C42.6345 38.327 42.5925 38.3307 42.5446 38.3307C42.3923 38.3302 42.2401 38.3302 42.0878 38.3302V41.2036C42.0878 41.2036 42.0985 41.5441 42.4709 41.5441C42.843 41.5441 43.0374 41.5177 43.0374 41.926C43.0374 42.0397 43.0063 42.143 42.9176 42.2184C42.8219 42.2999 42.6928 42.3289 42.5719 42.3257C42.4263 42.3216 42.2862 42.3309 42.1414 42.3071C42.0101 42.2857 41.8842 42.2358 41.7685 42.1705C41.5712 42.0595 41.4108 41.8898 41.3383 41.6731C41.3047 41.5731 41.2902 41.4675 41.2902 41.3622V38.3444C41.218 38.3444 41.1452 38.3464 41.0729 38.3464C41.0025 38.3467 40.9308 38.3531 40.8618 38.3351C40.7516 38.3064 40.6457 38.2138 40.599 38.1109C40.5741 38.0564 40.5634 37.9966 40.5634 37.9372C40.5634 37.7939 40.6275 37.6634 40.7484 37.5853C40.8079 37.5468 40.8676 37.5334 40.9384 37.5308C41.0553 37.5267 41.1753 37.5288 41.2925 37.5288Z" fill="#808083"/>
<path d="M37.4242 39.3876C37.4242 39.3876 37.5388 38.2217 38.5647 38.2217C39.6593 38.2217 39.6424 39.3876 39.6424 39.3876H37.4242ZM40.4751 39.5158C40.3609 38.4874 39.9467 37.4209 38.4727 37.4209C37.2543 37.4209 36.3572 38.9268 36.6519 40.493C36.7943 41.2497 37.1307 41.98 37.9942 42.2845C38.136 42.3344 38.3173 42.3483 38.4669 42.3634C38.9205 42.409 39.4156 42.2602 39.7718 41.9771C40.0418 41.7625 40.4374 41.2413 40.2991 40.8575C40.2425 40.7003 40.13 40.6217 39.9566 40.6061C39.7585 40.5881 39.6358 40.8027 39.5888 40.8973C39.4751 41.127 39.3884 41.5649 38.5647 41.5649C38.0673 41.5649 37.7865 41.2413 37.6073 40.9512C37.4889 40.7598 37.4356 40.3973 37.4225 40.1722H39.2074C39.4066 40.1722 39.6056 40.171 39.8049 40.1719C39.8713 40.1722 39.9386 40.171 40.005 40.1751C40.0711 40.1786 40.1402 40.1792 40.2042 40.1609C40.2846 40.138 40.3716 40.0707 40.416 40.0002C40.5181 39.8378 40.4957 39.7006 40.4751 39.5158Z" fill="#808083"/>
<path d="M10.5004 27.2531L8.80224 27.2597L8.80543 28.6594L8.00319 28.6661L8 30.19H8.80891C8.80891 30.19 8.80543 32.2542 8.80891 32.3516C8.81239 32.4491 8.83589 33.0599 9.48006 33.6606C10.2252 34.3955 11.1147 34.3822 11.1147 34.3822L12.3903 34.379V32.9288H11.3363C10.6248 32.9288 10.5004 32.0697 10.5004 32.0697L10.5039 30.1966C10.5039 30.1966 11.0376 30.1934 11.655 30.19C12.2728 30.1868 12.3903 29.5087 12.3903 29.5087V28.6626L10.5004 28.6661" fill="#EC1C23"/>
<path d="M15.0067 28.666C14.7448 28.666 14.2767 28.6811 13.6119 29.24C12.9474 29.7989 12.8331 30.5893 12.8366 30.7824C12.8398 30.9753 12.8384 34.3821 12.8384 34.3821L14.4864 34.3838C14.4864 34.3838 14.4881 31.5005 14.4881 31.0188C14.4881 30.5373 15.2132 30.1934 15.411 30.1934C15.6091 30.1934 16.3794 30.1948 16.3794 30.1948L16.371 28.666" fill="#EC1C23"/>
<path d="M21.9749 28.6661L20.2477 28.671C20.2477 28.671 20.2529 31.8481 20.2529 32.13C20.2529 32.4119 19.9861 32.9757 19.3364 32.9757C18.687 32.9757 18.4756 32.2759 18.4756 32.1248C18.4756 31.9739 18.4805 29.9701 18.4805 29.3961C18.4805 28.8221 17.9118 28.6611 17.7757 28.6611C17.6397 28.6611 16.789 28.671 16.789 28.671C16.789 28.671 16.7838 31.9133 16.7838 32.2054C16.7838 32.4975 16.8241 33.0613 17.3729 33.6805C17.9219 34.3 18.5864 34.4662 19.3767 34.4561C20.1674 34.4459 20.6457 34.3099 21.2849 33.8015C21.9244 33.293 21.9848 32.2909 21.9798 31.9939C21.9749 31.697 21.9749 28.6661 21.9749 28.6661Z" fill="#EC1C23"/>
<path d="M23.9063 30.9273C23.9962 30.5836 24.3175 29.9 25.1317 29.9551C26.0981 30.0203 26.199 30.9319 26.199 30.9319L23.9063 30.9273ZM27.7144 30.5592C27.5079 29.8997 27.291 29.5983 26.929 29.23C26.3501 28.6409 25.4841 28.5049 25.0763 28.5049C24.6685 28.5049 23.9686 28.6058 23.2484 29.1998C22.5286 29.7938 22.2768 30.8008 22.2568 31.5964C22.2365 32.392 22.6545 33.283 23.2183 33.8065C23.7824 34.3303 24.4872 34.466 25.1215 34.4611C25.7558 34.4562 26.1334 34.3253 26.6723 34.0031C27.2109 33.6806 27.5886 32.981 27.5886 32.981C27.5886 32.981 26.2895 32.6536 26.0177 32.5782C25.8918 32.7644 25.5395 33.0666 25.0058 33.0515C24.4721 33.0364 24.1597 32.6385 24.024 32.4372C23.9828 32.3763 23.9518 32.2464 23.9289 32.0895C24.6789 32.0886 27.5744 32.0848 27.8151 32.0848C27.8226 31.3673 27.8403 31.0575 27.7144 30.5592Z" fill="#EC1C23"/>
<path d="M45.4188 7.65552H38.087C37.6084 7.65552 37.182 7.95832 37.0246 8.41048C36.6751 9.41314 36.2815 10.5434 35.8754 11.7091C35.8754 11.7091 35.8754 11.7091 35.8754 11.7094C35.863 11.7453 35.8502 11.7816 35.8377 11.8176C35.829 11.8425 35.8203 11.8674 35.8116 11.8924C34.5442 15.53 33.1714 19.4687 32.6496 20.9604C32.589 21.1463 32.5197 21.358 32.4356 21.5759C32.4208 21.6144 32.3486 21.7986 32.2157 21.9799C32.1931 22.0112 32.1705 22.0393 32.1482 22.0654C32.1096 22.1113 32.0609 22.1655 31.9892 22.2212C31.9852 22.2244 31.9811 22.227 31.977 22.2302C31.9524 22.2493 31.9248 22.269 31.8929 22.2885C31.8146 22.3363 31.7485 22.361 31.7227 22.37C31.7189 22.3711 31.7154 22.3723 31.7117 22.3737C31.7114 22.3737 31.7105 22.374 31.7099 22.3743C31.7076 22.3749 31.7053 22.3758 31.703 22.3764C31.7015 22.3769 31.6998 22.3775 31.698 22.3781C31.6041 22.4094 31.5176 22.4225 31.4471 22.4265H40.2599C40.3168 22.4265 40.3736 22.4201 40.4287 22.4059C40.6431 22.3508 41.1013 22.1522 41.2942 21.4445L45.8721 8.2936C45.9806 7.98152 45.7489 7.65552 45.4188 7.65552Z" fill="#FF7A00"/>
<path d="M23.7215 19.9301C23.7235 19.9246 23.7253 19.9194 23.7273 19.9139L23.7441 19.866C23.7531 19.8402 23.7621 19.8144 23.7714 19.7886C23.7836 19.7532 23.796 19.7178 23.8085 19.6827C23.8239 19.6384 23.8395 19.5943 23.8549 19.5499C23.8735 19.4974 23.8917 19.4449 23.9103 19.3921C23.9315 19.3318 23.9527 19.2715 23.9738 19.2109C23.9979 19.1433 24.0214 19.0754 24.0452 19.0078L24.1238 18.7842C24.1519 18.7036 24.1803 18.6227 24.2088 18.542C24.2392 18.4556 24.2694 18.3689 24.2998 18.2824C24.332 18.1908 24.3642 18.0991 24.3964 18.0075C24.4301 17.9112 24.464 17.8149 24.4976 17.7183C24.533 17.618 24.5684 17.5176 24.6035 17.417C24.64 17.3129 24.6766 17.209 24.7131 17.1049C24.7508 16.9976 24.7882 16.8906 24.826 16.7835C24.8645 16.6736 24.9028 16.564 24.9414 16.4543C24.9805 16.3427 25.0197 16.231 25.0591 16.1191C25.0989 16.0059 25.1383 15.8928 25.1783 15.7797C25.2184 15.6654 25.2584 15.5512 25.2984 15.4372C25.3387 15.3226 25.3788 15.2081 25.4191 15.0935L25.5394 14.7501L25.6595 14.4084C25.699 14.2959 25.7384 14.1834 25.7781 14.0705C25.817 13.9594 25.8559 13.8486 25.895 13.7376C25.933 13.6288 25.971 13.52 26.0093 13.4113C26.0464 13.3054 26.0838 13.1993 26.121 13.0934C26.1569 12.9907 26.1932 12.888 26.2292 12.7851C26.2637 12.6862 26.2985 12.5873 26.3333 12.4884C26.3663 12.3938 26.3997 12.2993 26.4328 12.205C26.4644 12.1151 26.4957 12.0255 26.5273 11.9359L26.6161 11.6829C26.6436 11.6046 26.6709 11.526 26.6984 11.4477L26.7741 11.2322C26.7968 11.1673 26.8197 11.1023 26.8426 11.0373C26.8626 10.9802 26.8829 10.9228 26.9029 10.8653C26.9203 10.816 26.9374 10.7667 26.9548 10.7174C26.969 10.6765 26.9835 10.6359 26.9978 10.595C27.021 10.5286 27.0418 10.4607 27.0729 10.3972L27.0755 10.394L27.0769 10.3931L27.0778 10.3917L27.0793 10.3902C27.0853 10.3784 27.0877 10.3679 27.0946 10.3563C27.1552 10.2226 27.3153 10.0785 27.3806 10.0582L26.3881 6.72156C26.264 6.29695 25.8565 6.00488 25.4321 6.00488H18.4292C18.0994 6.00488 17.863 6.32218 17.9567 6.63803L21.8992 19.8878C22.0622 20.358 22.4155 20.6022 22.7768 20.6201C22.7771 20.6201 22.7771 20.6201 22.7774 20.6201C23.1533 20.6364 23.5364 20.4073 23.7215 19.9301Z" fill="#FF000F"/>
<path d="M27.3798 10.0587C27.3801 10.0587 27.3803 10.0582 27.3806 10.0579L27.3774 10.0599C27.378 10.0596 27.3789 10.0593 27.3798 10.0587Z" fill="#AA0016"/>
<path d="M30.1153 20.5644C30.0991 20.5093 30.0826 20.4545 30.0663 20.3994C30.0579 20.3712 30.0498 20.3431 30.0411 20.3147L28.3516 14.6387L27.17 10.6689C27.1259 10.5207 27.1407 10.3728 27.2034 10.2513C27.2182 10.2223 27.2361 10.1947 27.2567 10.1692C27.2591 10.166 27.2611 10.1625 27.2637 10.1596C27.2924 10.1251 27.3261 10.0944 27.3643 10.0683C27.3684 10.0654 27.373 10.0627 27.3774 10.0598L27.3806 10.0581C27.3153 10.0784 27.1552 10.2226 27.0946 10.3563C27.0879 10.3679 27.0815 10.3798 27.0755 10.3916C27.0746 10.3934 27.0737 10.3954 27.0728 10.3972C27.0418 10.4607 27.0209 10.5285 26.9977 10.595C26.9835 10.6359 26.969 10.6765 26.9548 10.7174C26.9374 10.7667 26.9203 10.816 26.9029 10.8653C26.8829 10.9227 26.8626 10.9801 26.8426 11.0373C26.8196 11.1022 26.797 11.1672 26.7741 11.2322L26.6984 11.4477C26.6709 11.526 26.6436 11.6046 26.616 11.6829L26.5273 11.9358C26.4957 12.0254 26.4644 12.115 26.4327 12.205C26.3997 12.2992 26.3663 12.3938 26.3333 12.4883C26.2984 12.5872 26.2636 12.6861 26.2291 12.785C26.1932 12.888 26.1569 12.9907 26.1209 13.0933C26.0838 13.1992 26.0467 13.3054 26.0093 13.4112C25.9713 13.52 25.933 13.6288 25.895 13.7375C25.8559 13.8486 25.817 13.9594 25.7781 14.0705C25.7384 14.1833 25.6989 14.2958 25.6595 14.4084L25.5394 14.75L25.4191 15.0934C25.3787 15.208 25.3387 15.3226 25.2984 15.4371C25.2584 15.5511 25.2184 15.6654 25.1783 15.7797C25.1386 15.8928 25.0989 16.0059 25.0591 16.119C25.02 16.231 24.9805 16.3426 24.9414 16.4543C24.9028 16.5639 24.8645 16.6736 24.8259 16.7835C24.7882 16.8905 24.7508 16.9975 24.7131 17.1048C24.6766 17.209 24.64 17.3128 24.6035 17.4169C24.5684 17.5176 24.533 17.6179 24.4976 17.7183C24.464 17.8149 24.43 17.9112 24.3964 18.0074C24.3642 18.0991 24.332 18.1907 24.2998 18.2824C24.2693 18.3688 24.2392 18.4556 24.2087 18.542C24.1803 18.6226 24.1522 18.7035 24.1238 18.7842L24.0454 19.0078C24.0214 19.0754 23.9979 19.1432 23.9741 19.2108C23.9526 19.2714 23.9315 19.3318 23.9103 19.3921C23.892 19.4449 23.8734 19.4974 23.8549 19.5499C23.8395 19.5942 23.8239 19.6383 23.8085 19.6827C23.796 19.7178 23.7835 19.7532 23.7714 19.7886C23.7621 19.8144 23.7531 19.8402 23.7441 19.866L23.7273 19.9139C23.7252 19.9194 23.7235 19.9246 23.7215 19.9301C23.5364 20.4072 23.1533 20.6363 22.7774 20.6201C22.7771 20.6201 22.7771 20.6201 22.7768 20.6201C22.7699 20.621 22.7629 20.6213 22.7562 20.6216H30.1322C30.1266 20.6024 30.1211 20.5833 30.1153 20.5644Z" fill="#AA0016"/>
<path d="M35.8755 11.709C35.8123 11.4814 35.7499 11.2534 35.6896 11.0248C35.6397 10.8369 35.5814 10.6553 35.4799 10.488C35.3807 10.3241 35.2458 10.1823 35.0776 10.0886C35.0306 10.0625 34.9816 10.0402 34.9311 10.0222C34.8514 9.99406 34.7162 9.97375 34.6318 9.97375H27.6886C27.5674 9.97375 27.4635 10.0057 27.3797 10.0587C27.3788 10.0593 27.378 10.0596 27.3774 10.0602C27.373 10.0628 27.3684 10.0654 27.3643 10.0683C27.3261 10.0944 27.2927 10.1252 27.2637 10.1597C27.2611 10.1626 27.2594 10.166 27.2567 10.1692C27.2362 10.1948 27.2182 10.2223 27.2034 10.2513C27.1407 10.3728 27.1259 10.5211 27.17 10.669L28.3516 14.6387L30.0414 20.3147L30.1258 20.5987L30.4469 21.7171C30.4677 21.7765 30.6377 22.2383 31.1058 22.3842C31.3358 22.4558 31.538 22.4204 31.6412 22.394C31.6566 22.3902 31.676 22.385 31.6981 22.3781C31.6998 22.3775 31.7016 22.3769 31.703 22.3763C31.7059 22.3755 31.7088 22.3746 31.7117 22.3737C31.7155 22.3723 31.719 22.3711 31.7227 22.3699C31.7485 22.361 31.815 22.3363 31.893 22.2884C31.9249 22.2693 31.9524 22.2493 31.9774 22.2301C32.0279 22.1907 32.0653 22.1536 32.0931 22.1252C32.1117 22.1063 32.1299 22.0866 32.1482 22.0654C32.1706 22.0393 32.1932 22.0112 32.2158 21.9801C32.3486 21.7986 32.4209 21.6144 32.4356 21.5758C32.5198 21.358 32.5891 21.1463 32.6497 20.9604C32.683 20.8586 32.7135 20.7643 32.7425 20.6816L32.9609 20.056C33.0523 19.7941 33.1439 19.5319 33.2353 19.2697C33.3409 18.9678 33.4464 18.6659 33.5517 18.364C33.6663 18.0362 33.7805 17.7085 33.8951 17.3804C34.0137 17.0408 34.1324 16.7009 34.2513 16.361L34.6054 15.347L34.9427 14.3803C35.0451 14.0874 35.1472 13.7947 35.2493 13.5021C35.3366 13.2529 35.4236 13.0038 35.5106 12.7546C35.5773 12.5629 35.6443 12.3712 35.7113 12.1792C35.745 12.0835 35.778 11.9881 35.8117 11.8924C35.8204 11.8674 35.8291 11.8425 35.8378 11.8175C35.8503 11.7816 35.863 11.7453 35.8755 11.7093C35.8755 11.709 35.8755 11.709 35.8755 11.709Z" fill="#FFCD00"/>
</svg>